<svg width="292" height="316" viewBox="0 0 292 316" fill="none" xmlns="http://www.w3.org/2000/svg">
<path d="M215.262 15.6103L198.18 24.8817C197.555 25.1695 197.021 25.6502 196.646 26.2638C196.272 26.8774 196.072 27.5969 196.072 28.3325V36.9782C196.057 44.838 198.175 52.5296 202.163 59.0982C205.241 64.1542 209.323 70.6575 216.115 74.3673H219.175C226.738 71.8393 232.379 65.2223 235.825 59.5343C239.813 52.9654 241.931 45.274 241.916 37.4143V28.3325C241.916 27.5978 241.717 26.8792 241.343 26.2658C240.97 25.6524 240.438 25.1712 239.814 24.8817L220.355 15.9073C219.485 15.5092 216.127 15.2121 215.262 15.6103Z" fill="#E0E0E0"/>
<path d="M214.573 15.9074L195.114 24.8818C194.489 25.1695 193.955 25.6502 193.58 26.2638C193.206 26.8774 193.006 27.5969 193.006 28.3325V36.9782C193.007 44.988 195.202 52.8177 199.316 59.4766C203.429 66.1354 209.276 71.3242 216.115 74.3863C223.672 71.8583 229.313 65.2413 232.765 59.5533C236.753 52.9777 238.871 45.28 238.856 37.4143V28.3325C238.856 27.5969 238.657 26.8774 238.282 26.2638C237.907 25.6502 237.373 25.1695 236.748 24.8818L217.289 15.9074C216.859 15.7118 216.397 15.6111 215.931 15.6111C215.465 15.6111 215.003 15.7118 214.573 15.9074Z" fill="#F5F5F5"/>
<path d="M238.792 35.0696C238.818 35.2003 238.83 35.334 238.827 35.4677C238.827 35.7648 238.856 36.144 238.874 36.6117C238.891 37.0793 238.92 37.7177 238.874 38.4255C238.827 39.1333 238.874 39.9423 238.768 40.8271C238.663 41.7119 238.634 42.7231 238.465 43.728C238.389 44.2462 238.33 44.7834 238.231 45.3333C238.132 45.8831 238.009 46.4393 237.898 47.0144C237.36 49.5097 236.607 51.945 235.65 54.2887C234.666 56.6209 233.494 58.8543 232.146 60.9626C231.498 61.9106 230.896 62.8586 230.254 63.6107C229.938 64.0089 229.67 64.4133 229.349 64.7673L228.461 65.7848C227.906 66.4168 227.34 66.9729 226.867 67.4659C226.394 67.9589 225.961 68.3444 225.605 68.6541L224.84 69.3745C224.749 69.4645 224.649 69.5429 224.542 69.6084C224.62 69.5035 224.708 69.4081 224.805 69.324L225.593 68.5593C225.938 68.2369 226.358 67.8325 226.814 67.2953C227.27 66.7581 227.83 66.2651 228.367 65.5952L229.238 64.565C229.535 64.2111 229.822 63.8066 230.125 63.4085C230.756 62.6185 231.34 61.7021 231.977 60.7541C233.299 58.6553 234.452 56.4372 235.422 54.1244C236.368 51.7979 237.121 49.3846 237.671 46.9133L238.015 45.2448C238.12 44.7013 238.184 44.1641 238.266 43.6521C238.441 42.6283 238.512 41.6613 238.599 40.7765C238.687 39.8917 238.698 39.0954 238.745 38.3876C238.792 37.6797 238.786 37.0793 238.786 36.5801C238.786 36.0808 238.786 35.7332 238.786 35.4361C238.776 35.3141 238.778 35.1912 238.792 35.0696Z" fill="#E0E0E0"/>
<path d="M214.48 53.8654L203.32 44.2653L206.415 40.0498L213.902 46.4899L224.834 33.2495L228.543 36.8393L214.48 53.8654Z" fill="white"/>
<path d="M267.203 62.9219H265.089V50.4778C265.089 49.0698 264.573 47.7195 263.653 46.7239C262.733 45.7283 261.485 45.169 260.184 45.169C258.883 45.169 257.635 45.7283 256.715 46.7239C255.795 47.7195 255.278 49.0698 255.278 50.4778V62.9219H253.164V50.4778C253.164 48.4664 253.902 46.5374 255.217 45.1151C256.531 43.6928 258.313 42.8938 260.172 42.8938C262.031 42.8938 263.813 43.6928 265.127 45.1151C266.442 46.5374 267.18 48.4664 267.18 50.4778L267.203 62.9219Z" fill="#EBEBEB"/>
<path d="M267.84 54.4783H252.522C251.528 54.4783 250.723 55.3498 250.723 56.4248V68.5782C250.723 69.6533 251.528 70.5248 252.522 70.5248H267.84C268.833 70.5248 269.639 69.6533 269.639 68.5782V56.4248C269.639 55.3498 268.833 54.4783 267.84 54.4783Z" fill="#EBEBEB"/>
<path d="M261.632 62.9155C261.82 62.7088 261.969 62.4639 262.069 62.195C262.169 61.926 262.219 61.6382 262.216 61.3481C262.219 60.9276 262.113 60.5146 261.91 60.1558C261.708 59.7969 261.417 59.5065 261.07 59.3172C260.723 59.1279 260.334 59.0473 259.947 59.0845C259.56 59.1218 259.19 59.2753 258.879 59.5279C258.568 59.7804 258.329 60.1219 258.188 60.5138C258.047 60.9057 258.01 61.3325 258.082 61.7459C258.153 62.1592 258.33 62.5428 258.592 62.8534C258.854 63.1639 259.191 63.389 259.565 63.5033L259.121 65.6394H261.101L260.704 63.5033C261.049 63.3964 261.363 63.1938 261.615 62.9155" fill="#FAFAFA"/>
<path d="M27.1151 244.546C24.847 243.01 22.2839 242.057 19.6224 241.759C18.396 241.62 17.0587 241.658 16.0775 242.46C15.9636 242.531 15.8693 242.633 15.8046 242.757C15.7399 242.88 15.707 243.02 15.7096 243.162C15.7694 243.362 15.8938 243.533 16.06 243.642C17.6509 244.871 19.5222 245.604 21.471 245.764C23.4198 245.923 25.3717 245.502 27.1151 244.546Z" fill="#E0E0E0"/>
<path d="M26.9225 244.318C25.1877 242.938 23.5677 241.397 22.0811 239.711C20.5914 238.013 19.5454 235.917 19.0501 233.638C18.9515 233.3 18.9218 232.943 18.9632 232.592C19.0045 232.24 19.1159 231.903 19.2896 231.603C23.144 234.864 26.1749 239.085 26.9225 244.318Z" fill="#E0E0E0"/>
<path d="M27.0743 244.514C26.7188 242.233 26.7505 239.901 27.1677 237.632C27.5966 235.344 28.8033 233.314 30.5491 231.944C31.2148 233.631 30.9287 235.578 30.4615 237.335C29.7354 240.065 28.601 242.648 27.1035 244.982" fill="#E0E0E0"/>
<path d="M30.8585 251.852C28.5885 252.249 26.4886 253.4 24.8492 255.145C23.1248 256.84 21.9239 259.069 21.4094 261.528C23.6637 261.376 25.5733 259.632 26.9574 257.736C28.3415 255.84 29.2934 253.697 30.8293 251.896" fill="#E0E0E0"/>
<path d="M31.6821 253.021C30.778 250.538 30.461 247.851 30.7598 245.202C31.0586 242.553 31.9638 240.027 33.3932 237.853C34.7014 242.909 34.2166 248.597 31.6821 253.021Z" fill="#E0E0E0"/>
<path d="M36.6752 259.461C34.5764 259.324 32.4865 259.856 30.6645 260.991C28.8426 262.127 27.3688 263.817 26.426 265.851C26.3034 266.122 26.1866 266.483 26.3618 266.717C26.4496 266.81 26.5574 266.879 26.6756 266.916C26.7937 266.954 26.9187 266.959 27.0392 266.931C29.0598 266.792 30.8469 265.478 32.3244 263.98C33.8019 262.482 35.0926 260.751 36.7219 259.455" fill="#E0E0E0"/>
<path d="M36.5175 259.12C35.4415 255.371 35.3746 251.368 36.3248 247.58C36.7044 246.094 37.3351 244.533 38.6024 243.838C38.6532 243.801 38.7105 243.776 38.7709 243.764C38.8312 243.752 38.8931 243.753 38.9528 243.769C39.0553 243.828 39.1327 243.927 39.1689 244.047C39.5972 245.084 39.7818 246.219 39.7061 247.352C39.6313 248.483 39.4711 249.605 39.2273 250.708C38.8301 252.756 38.6433 254.955 37.5745 256.725C37.3306 257.15 37.1102 257.592 36.9146 258.046C36.7219 258.494 36.7219 258.678 36.5409 259.006" fill="#E0E0E0"/>
<path d="M49.745 261.243C49.3004 259.137 49.2858 256.951 49.7024 254.837C50.119 252.724 50.9566 250.735 52.1569 249.008C52.3263 248.761 52.5541 248.502 52.8402 248.528C53.2724 248.572 53.3833 249.198 53.3658 249.665C53.1867 253.814 51.9319 257.824 49.745 261.237" fill="#E0E0E0"/>
<path d="M50.9365 262.128C53.2508 262.719 55.6559 262.76 57.9861 262.247C60.3162 261.734 62.5157 260.68 64.4328 259.158C62.1747 257.929 59.5922 257.587 57.1269 258.191C54.6858 258.823 52.4549 259.973 50.9365 262.128Z" fill="#E0E0E0"/>
<path d="M51.9409 259.442C54.4813 254.968 59.346 252.048 64.2049 251.776C63.6209 253.912 62.0266 255.568 60.1987 256.573C58.3249 257.483 56.3439 258.108 54.312 258.431C53.5294 258.595 52.4548 258.779 51.976 259.442" fill="#E0E0E0"/>
<path d="M49.9962 246.404C50.7665 243.883 51.2911 241.282 51.5613 238.643C51.8328 235.988 51.3348 233.307 50.1364 230.971C47.7653 235.932 47.5259 241.715 49.9261 246.676" fill="#E0E0E0"/>
<path d="M57.9736 242.056C60.7476 236.608 66.4008 232.254 72.1181 231.641C69.9106 237.588 63.8954 242.182 57.9736 242.056Z" fill="#E0E0E0"/>
<path d="M56.2334 243.111C60.3623 243.794 63.8838 246.651 67.744 248.382C68.5547 248.802 69.4522 248.987 70.3487 248.919C70.7652 248.914 71.1701 248.77 71.5087 248.507C71.8474 248.245 72.1037 247.877 72.243 247.452C72.3824 247.027 72.3981 246.566 72.2881 246.131C72.178 245.697 71.9475 245.309 71.6276 245.02C71.0812 244.466 70.4379 244.036 69.7355 243.756C65.5307 241.86 61.0164 241.816 56.5896 242.966" fill="#E0E0E0"/>
<path d="M53.8389 246.246C54.7733 246.537 55.0945 247.061 55.8361 247.744C58.3698 250.074 61.3685 251.735 64.5961 252.598C64.929 252.686 65.367 252.724 65.5364 252.402C65.7057 252.079 65.4955 251.77 65.3086 251.517C63.9108 249.737 62.0949 248.399 60.0526 247.643C58.0378 246.828 56.2917 245.848 53.8856 246.063" fill="#E0E0E0"/>
<path d="M51.1409 227.305C52.8358 228.996 54.8389 230.284 57.0214 231.088C59.2039 231.891 61.5175 232.191 63.8137 231.969C64.027 231.977 64.2352 231.898 64.3977 231.748C64.7189 231.369 64.3334 230.787 63.9655 230.484C60.2396 227.324 55.7253 226.06 51.1525 227.324" fill="#E0E0E0"/>
<path d="M54.3413 226.035C56.5845 224.249 59.1859 223.063 61.9334 222.574C64.6808 222.084 67.4963 222.304 70.1502 223.216C68.0809 225.289 65.4275 226.549 62.6166 226.793C59.8384 227.069 57.037 226.813 54.3413 226.035Z" fill="#E0E0E0"/>
<path d="M53.068 217.332C52.706 213.306 52.9396 210.133 52.6826 206.089C52.6826 205.766 52.6008 205.381 52.3205 205.261C51.9292 205.103 51.608 205.615 51.4796 206.044C50.9375 207.918 50.7984 209.901 51.0727 211.842C51.3469 213.783 52.0274 215.631 53.0622 217.243" fill="#E0E0E0"/>
<path d="M52.7996 217.774C55.2386 216.082 57.3411 213.879 58.9841 211.296C60.1988 209.495 61.2267 207.34 60.9522 205.128C60.0955 205.153 59.2539 205.379 58.4864 205.792C57.7188 206.204 57.0436 206.793 56.508 207.517C55.4473 208.974 54.6759 210.652 54.242 212.447C53.7515 214.216 53.4069 216.036 52.8229 217.774" fill="#E0E0E0"/>
<path d="M58.8555 215.954C64.4091 213.737 69.5515 210.462 74.0395 206.285C72.2291 205.495 70.1559 205.969 68.3455 206.759C64.2356 208.443 60.84 211.702 58.803 215.916" fill="#E0E0E0"/>
<path d="M54.5046 219.98C57.2949 220.409 60.1261 220.424 62.9201 220.024C65.6474 219.531 68.2286 218.356 70.7749 217.199C70.9977 217.127 71.1886 216.97 71.3122 216.757C71.3506 216.629 71.3528 216.491 71.3184 216.362C71.2841 216.232 71.2148 216.117 71.1194 216.03C70.9223 215.863 70.6926 215.746 70.4478 215.689C67.6738 214.855 64.6838 215.246 61.9565 216.239C59.3589 217.202 56.8614 218.456 54.5046 219.98Z" fill="#E0E0E0"/>
<path d="M38.544 227.444C36.6343 223.273 36.792 218.406 38.4097 214.109C39.5777 216.005 39.712 218.457 39.5017 220.739C39.2915 223.02 38.6491 225.358 38.6024 227.646" fill="#E0E0E0"/>
<path d="M30.8995 223.279C28.5099 223.245 26.14 223.751 23.9416 224.765C21.7432 225.78 19.7648 227.28 18.1333 229.169C20.5468 229.483 22.9912 228.994 25.1413 227.766C27.2699 226.544 29.2776 225.089 31.1331 223.425" fill="#E0E0E0"/>
<path d="M25.7719 221.421C23.4359 221.219 21.1992 220.909 18.9567 221.649C17.8252 221.993 16.7757 222.598 15.8798 223.422C14.9838 224.245 14.2625 225.268 13.7649 226.42C15.9644 226.611 18.1708 226.159 20.1539 225.112C22.1251 224.067 24.0054 222.831 25.7719 221.421Z" fill="#E0E0E0"/>
<path d="M33.3638 221.51C31.2673 220.024 29.1123 218.508 26.6712 217.888C24.2301 217.269 21.4152 217.73 19.6982 219.721C21.6722 220.985 24.0724 221.124 26.3675 221.124C28.6626 221.124 31.4658 221.093 33.6266 221.921" fill="#E0E0E0"/>
<path d="M33.3756 221.63C29.7898 217.838 28.435 210.974 29.8716 205.766C32.7011 210.456 33.9395 216.062 33.3756 221.63Z" fill="#E0E0E0"/>
<path d="M43.2161 210.835C43.8935 209.129 44.3841 207.347 44.9681 205.615C45.521 203.858 46.3705 202.227 47.4734 200.805C48.5908 199.364 50.1871 198.456 51.9177 198.277C51.3649 200.902 50.3129 203.374 48.8289 205.535C47.3448 207.696 45.4611 209.499 43.2978 210.829" fill="#E0E0E0"/>
<path d="M41.4641 213.085C40.3487 211.417 39.0522 209.154 37.5338 207.909C36.0154 206.664 34.0298 205.912 32.1902 206.386C33.1495 208.205 34.487 209.757 36.0966 210.92C37.7063 212.083 39.5439 212.824 41.4641 213.085Z" fill="#E0E0E0"/>
<path d="M41.8087 210.974C41.0137 208.984 40.4261 206.905 40.0567 204.774C39.6897 202.618 40.0066 200.391 40.956 198.454C42.9241 202.48 43.5607 206.803 41.9313 211.006" fill="#E0E0E0"/>
<path d="M43.2568 198.448C44.3723 194.46 47.7478 191.496 51.3978 190.169C51.8486 189.968 52.3377 189.89 52.8228 189.941C53.0652 189.968 53.2947 190.073 53.4819 190.242C53.6691 190.411 53.8056 190.636 53.874 190.889C54.0083 191.565 53.4885 192.153 52.998 192.627C50.149 195.262 46.8349 197.242 43.2568 198.448Z" fill="#E0E0E0"/>
<path d="M43.2977 195.206C43.4378 192.627 43.5838 190.017 44.3605 187.577C45.1373 185.138 46.6265 182.856 48.7931 181.788C49.161 184.386 48.104 186.971 46.825 189.208C45.5461 191.445 44.0043 193.556 43.2393 196.053" fill="#E0E0E0"/>
<path d="M43.2159 196.975C42.2932 194.068 42.1998 190.371 40.5879 187.837C39.4608 186.067 37.6679 184.86 36.6926 182.983C36.107 184.783 36.1886 186.758 36.9204 188.494C37.6526 190.211 38.6611 191.773 39.8988 193.108C41.0668 194.485 42.1063 195.522 43.2159 196.975Z" fill="#E0E0E0"/>
<path d="M43.2568 282.643C43.1867 282.643 43.1225 263.24 43.1166 239.307C43.1108 215.373 43.1692 195.964 43.2393 195.964C43.3093 195.964 43.3736 215.36 43.3794 239.307C43.3853 263.253 43.3269 282.643 43.2568 282.643Z" fill="#E0E0E0"/>
<path d="M58.9256 224.511C58.7113 224.629 58.4862 224.722 58.254 224.79L56.3968 225.466C54.8317 226.041 52.6826 226.875 50.3524 227.912C48.0223 228.948 45.8615 229.852 44.6234 231.015C44.1217 231.46 43.722 232.024 43.4554 232.664C43.2744 233.119 43.2452 233.397 43.2218 233.397C43.1984 233.397 43.2218 233.322 43.2218 233.189C43.2515 232.997 43.2964 232.809 43.3561 232.626C43.59 231.949 43.9753 231.346 44.4774 230.869C45.2265 230.184 46.0647 229.622 46.9652 229.201C47.958 228.695 49.0618 228.171 50.2298 227.653C52.5658 226.616 54.7324 225.807 56.3151 225.276C57.1093 225.011 57.7517 224.815 58.2014 224.682C58.4373 224.601 58.6798 224.544 58.9256 224.511Z" fill="#E0E0E0"/>
<path d="M64.0648 210.86C64.01 210.941 63.9451 211.014 63.8721 211.075L63.2881 211.663L61.139 213.774L53.9908 220.663C51.1993 223.355 48.7874 225.921 47.1171 227.855C46.2762 228.822 45.6163 229.624 45.1666 230.181L44.6468 230.813C44.5925 230.892 44.5276 230.962 44.4541 231.021C44.4977 230.933 44.5506 230.85 44.6118 230.775C44.7169 230.617 44.8746 230.383 45.0907 230.098C45.517 229.517 46.1594 228.695 46.9828 227.709C49.1399 225.158 51.4207 222.732 53.8156 220.441C56.6188 217.762 59.1651 215.348 61.0163 213.616C61.9274 212.769 62.6749 212.08 63.218 211.568L63.802 211.025C63.8822 210.957 63.9707 210.902 64.0648 210.86Z" fill="#E0E0E0"/>
<path d="M50.9891 223.399C50.9132 223.361 51.4972 221.908 52.0812 220.062C52.6652 218.217 52.9397 216.669 53.0156 216.681C52.955 217.87 52.7225 219.04 52.3265 220.151C52.0756 220.939 51.7852 221.711 51.4563 222.464C51.339 222.797 51.1819 223.111 50.9891 223.399Z" fill="#E0E0E0"/>
<path d="M43.2744 235.142C43.1107 234.982 42.9656 234.802 42.8422 234.605L41.7385 233.075C40.8158 231.78 39.5368 229.991 38.1002 228.019C36.6635 226.047 35.3495 224.309 34.3918 223.039L33.288 221.548C33.1402 221.37 33.0092 221.178 32.8967 220.972C33.0672 221.124 33.2237 221.294 33.3639 221.478C33.6501 221.813 34.0589 222.312 34.5319 222.932C35.5247 224.196 36.8679 225.902 38.3046 227.861C39.7412 229.82 40.9968 231.653 41.8845 232.955C42.3342 233.587 42.6846 234.162 42.924 234.541C43.0594 234.728 43.1768 234.929 43.2744 235.142Z" fill="#E0E0E0"/>
<path d="M39.8346 230.37C39.1422 229.541 38.6488 228.541 38.398 227.457C38.1248 226.505 38.0139 225.507 38.0709 224.512H38.1877C38.1718 224.632 38.1341 224.748 38.0768 224.853C38.0768 224.853 38.0768 224.72 38.0768 224.493H38.1936C38.2482 225.462 38.4009 226.422 38.6491 227.356C38.9766 228.39 39.3728 229.398 39.8346 230.37Z" fill="#E0E0E0"/>
<path d="M35.4022 224.36C35.0915 224.107 34.7544 223.895 34.3977 223.728C33.4938 223.433 32.5419 223.351 31.6062 223.488C30.6587 223.562 29.7188 223.725 28.7972 223.974C28.4141 224.102 28.024 224.203 27.6292 224.278C27.9701 224.05 28.3429 223.884 28.7329 223.785C29.6575 223.475 30.6117 223.28 31.577 223.203C32.5457 223.064 33.5312 223.179 34.4503 223.538C34.846 223.685 35.1824 223.975 35.4022 224.36Z" fill="#E0E0E0"/>
<path d="M34.3508 222.869C34.3508 222.913 33.7668 222.616 32.809 222.237C30.3132 221.317 27.6425 221.1 25.0477 221.605C24.0549 221.794 23.4592 221.996 23.4417 221.952C23.5672 221.865 23.7054 221.801 23.8505 221.763C24.2324 221.618 24.6225 221.499 25.0185 221.409C26.3235 221.099 27.6632 220.997 28.9955 221.105C30.3254 221.218 31.6334 221.537 32.8791 222.053C33.2553 222.209 33.622 222.391 33.977 222.597C34.1137 222.666 34.2398 222.758 34.3508 222.869Z" fill="#E0E0E0"/>
<path d="M43.216 216.681C42.7588 215.301 42.3843 213.891 42.0948 212.459C41.7175 211.051 41.4249 209.617 41.2188 208.168C41.6765 209.548 42.0529 210.958 42.3459 212.39C42.7197 213.799 43.0103 215.232 43.216 216.681Z" fill="#E0E0E0"/>
<path d="M43.3094 216.681C42.9504 215.808 42.5347 214.963 42.0654 214.153C41.5396 213.387 40.9231 212.698 40.2317 212.105C40.4924 212.178 40.7342 212.314 40.9383 212.504C41.4588 212.913 41.9111 213.415 42.2757 213.989C42.8336 214.772 43.1903 215.701 43.3094 216.681Z" fill="#E0E0E0"/>
<path d="M43.2569 272.297C43.2569 272.297 43.1751 271.829 42.9707 271.033C42.6844 269.874 42.2932 268.747 41.8027 267.671C40.076 264.161 37.9406 260.905 35.4488 257.982C34.0297 256.225 32.6514 254.569 31.4834 252.983C30.432 251.591 29.4831 250.112 28.6452 248.559C28.0817 247.51 27.603 246.411 27.2144 245.273C27.0801 244.868 26.9866 244.552 26.9341 244.337C26.8999 244.228 26.8745 244.116 26.8582 244.002C26.8582 244.002 27.01 244.445 27.3078 245.235C27.7322 246.348 28.2319 247.425 28.8029 248.458C29.6586 249.986 30.6149 251.446 31.6645 252.825C32.8325 254.393 34.2224 256.036 35.6415 257.793C38.1515 260.733 40.2811 264.028 41.9721 267.589C42.4602 268.681 42.8381 269.828 43.0992 271.008C43.1684 271.329 43.221 271.654 43.2569 271.981C43.2658 272.086 43.2658 272.192 43.2569 272.297Z" fill="#E0E0E0"/>
<path d="M57.4188 254.993C57.1788 255.156 56.9313 255.306 56.6771 255.442C56.0041 255.849 55.36 256.309 54.7499 256.82C53.846 257.576 53.0004 258.411 52.2212 259.316C51.3335 260.327 50.4225 261.503 49.4881 262.767C47.6251 265.295 45.8789 267.545 44.8161 269.333C44.2846 270.218 43.8992 270.964 43.6481 271.488C43.528 271.767 43.3915 272.037 43.2393 272.297C43.2393 272.297 43.2393 272.215 43.3093 272.07C43.3794 271.924 43.4378 271.709 43.5546 271.438C43.8861 270.678 44.2605 269.942 44.6759 269.232C46.0945 266.927 47.6329 264.712 49.2837 262.596C50.2181 261.332 51.1466 260.156 52.0518 259.139C52.8483 258.238 53.7137 257.411 54.6389 256.668C55.27 256.157 55.9424 255.708 56.6479 255.328C56.8373 255.223 57.0323 255.13 57.2319 255.05C57.3526 254.999 57.4149 254.98 57.4188 254.993Z" fill="#E0E0E0"/>
<path d="M57.6933 260.605C57.1758 260.728 56.6507 260.81 56.1223 260.852C54.8621 260.991 53.6167 261.258 52.4022 261.648C51.201 262.07 50.0752 262.712 49.0734 263.544C48.3084 264.176 47.9463 264.713 47.9054 264.688C47.8645 264.663 47.9638 264.53 48.1332 264.296C48.3771 263.966 48.651 263.663 48.9508 263.392C49.9443 262.495 51.0884 261.812 52.3205 261.383C53.5501 260.986 54.818 260.744 56.0989 260.662C56.6276 260.59 57.1613 260.571 57.6933 260.605Z" fill="#E0E0E0"/>
<path d="M48.3669 264.062C48.2851 264.012 48.9917 262.842 49.5349 261.269C50.078 259.695 50.1714 258.292 50.259 258.311C50.3089 258.612 50.3089 258.92 50.259 259.221C50.1794 259.953 50.0266 260.673 49.8035 261.37C49.5633 262.057 49.258 262.716 48.8925 263.335C48.7566 263.608 48.5789 263.854 48.3669 264.062Z" fill="#E0E0E0"/>
<path d="M62.0034 239.913C61.9272 239.976 61.8425 240.025 61.7522 240.059L61.0164 240.419C60.6894 240.571 60.2981 240.76 59.8484 241.013C59.3987 241.266 58.8848 241.519 58.3475 241.866L57.4949 242.391C57.197 242.58 56.9109 242.795 56.5897 243.023C55.959 243.434 55.3282 243.945 54.6508 244.464C53.2194 245.639 51.8688 246.926 50.6095 248.313C49.3738 249.715 48.2357 251.215 47.2048 252.8C46.7434 253.552 46.2938 254.253 45.9317 254.949C45.7506 255.29 45.5579 255.619 45.3944 255.947L44.9681 256.895C44.6644 257.489 44.4483 258.058 44.2322 258.545C44.0162 259.031 43.8526 259.461 43.7242 259.809C43.5957 260.156 43.4964 260.403 43.4146 260.618C43.3826 260.715 43.3415 260.808 43.292 260.896C43.3031 260.793 43.3287 260.693 43.3679 260.599L43.6307 259.771C43.7475 259.411 43.8935 258.968 44.0979 258.475C44.3023 257.982 44.5067 257.401 44.8046 256.8C44.9447 256.491 45.0966 256.168 45.2484 255.84C45.4002 255.511 45.593 255.208 45.7798 254.829C46.1361 254.121 46.5799 253.413 47.0354 252.654C49.0853 249.411 51.6264 246.565 54.5515 244.236C55.2348 243.718 55.8772 243.212 56.5138 242.808C56.835 242.599 57.1328 242.378 57.4306 242.176L58.3008 241.658C58.8498 241.323 59.3754 241.076 59.825 240.842C60.2052 240.637 60.5951 240.454 60.993 240.293L61.7522 239.977C61.8338 239.947 61.9179 239.925 62.0034 239.913Z" fill="#E0E0E0"/>
<path d="M50.8081 248.041C50.9006 247.652 51.1051 247.304 51.3921 247.049C52.083 246.398 52.9643 246.033 53.8799 246.019C54.7751 246.014 55.6622 246.201 56.4904 246.568C56.8402 246.69 57.1724 246.865 57.4774 247.087C57.1199 247.014 56.7698 246.904 56.432 246.758C55.613 246.452 54.7524 246.296 53.8858 246.297C53.0266 246.317 52.1958 246.633 51.5147 247.2C51.259 247.46 51.0227 247.741 50.8081 248.041Z" fill="#E0E0E0"/>
<path d="M49.1204 249.912C49.4528 249.12 49.6903 248.285 49.827 247.428C49.8743 246.56 49.8213 245.69 49.6693 244.837C49.8196 245.05 49.9198 245.299 49.9613 245.563C50.2634 246.813 50.1195 248.14 49.5584 249.28C49.3364 249.709 49.1437 249.931 49.1204 249.912Z" fill="#E0E0E0"/>
<path d="M30.8704 275.078C31.2558 282.498 33.3232 290.037 36.5001 297.666H50.3117C53.3427 290.113 55.264 282.586 55.6028 275.078H30.8704Z" fill="#E0E0E0"/>
<path d="M53.366 287.08C53.366 287.155 48.8166 287.219 43.2102 287.219C37.6038 287.219 33.0544 287.155 33.0544 287.08C33.0544 287.004 37.598 286.928 43.216 286.928C48.8341 286.928 53.366 287.004 53.366 287.08Z" fill="#FAFAFA"/>
<path d="M53.0564 289.766C53.0564 289.841 48.7932 289.905 43.5372 289.905C38.2812 289.905 34.0122 289.841 34.0122 289.766C34.0122 289.69 38.2754 289.626 43.5372 289.626C48.7991 289.626 53.0564 289.69 53.0564 289.766Z" fill="#FAFAFA"/>
<path d="M36.722 279.976C36.8933 282.266 36.8933 284.568 36.722 286.858C36.5507 284.568 36.5507 282.266 36.722 279.976Z" fill="#FAFAFA"/>
<path d="M44.1212 279.976C44.2925 282.349 44.2925 284.732 44.1212 287.105C43.9498 284.732 43.9498 282.349 44.1212 279.976Z" fill="#FAFAFA"/>
<path d="M51.0709 279.887C51.2422 282.309 51.2422 284.741 51.0709 287.162C50.8996 284.741 50.8996 282.309 51.0709 279.887Z" fill="#FAFAFA"/>
<path d="M55.1646 279.976C55.1646 280.052 49.8327 280.115 43.2568 280.115C36.681 280.115 31.3374 280.052 31.3374 279.976C31.3374 279.9 36.6752 279.837 43.2568 279.837C49.8385 279.837 55.1646 279.869 55.1646 279.976Z" fill="#FAFAFA"/>
<path d="M269.452 210.791C270.716 210.187 271.788 209.195 272.536 207.938C273.285 206.681 273.676 205.214 273.662 203.719C273.662 199.497 270.742 196.059 267.069 196.046C263.396 196.034 260.429 199.434 260.417 203.63C260.391 205.137 260.777 206.619 261.527 207.889C262.278 209.159 263.359 210.16 264.634 210.766C254.443 212.428 254.904 224.411 254.904 224.411L279.006 224.531C279.006 224.531 279.555 212.44 269.452 210.791Z" fill="#EBEBEB"/>
<path d="M161.108 36.5357C161.996 36.3471 162.814 35.8835 163.463 35.2014C164.112 34.5193 164.564 33.648 164.764 32.6932C164.93 32.0805 164.979 31.4376 164.908 30.8036C164.837 30.1697 164.648 29.5581 164.351 29.006C164.055 28.454 163.657 27.9731 163.183 27.5926C162.71 27.2122 162.169 26.9402 161.595 26.7932C161.021 26.6463 160.425 26.6274 159.844 26.7378C159.262 26.8482 158.708 27.0855 158.214 27.4353C157.721 27.7851 157.298 28.2401 156.972 28.7724C156.647 29.3048 156.424 29.9034 156.319 30.5317C156.095 31.4899 156.138 32.4988 156.443 33.4304C156.749 34.362 157.303 35.1744 158.036 35.7647C151.303 35.1896 149.965 42.9126 149.965 42.9126L165.325 46.85C165.325 46.85 167.333 39.1838 161.108 36.5357Z" fill="#EBEBEB"/>
<path d="M270.112 100.873C270.848 100.375 271.433 99.6534 271.795 98.7985C272.156 97.9436 272.277 96.9927 272.144 96.0638C272.1 95.4489 271.94 94.8502 271.674 94.3047C271.408 93.7593 271.042 93.2787 270.597 92.8926C270.153 92.5064 269.64 92.223 269.09 92.0598C268.541 91.8966 267.966 91.857 267.402 91.9436C266.837 92.0301 266.295 92.241 265.809 92.5631C265.323 92.8852 264.903 93.3116 264.576 93.8162C264.248 94.3208 264.019 94.8927 263.904 95.4967C263.788 96.1007 263.788 96.7239 263.904 97.3278C264.011 98.2683 264.375 99.153 264.948 99.8697C265.521 100.586 266.277 101.103 267.122 101.354C260.925 103.382 262.204 110.789 262.204 110.789L277.202 108.521C277.202 108.521 276.53 100.918 270.112 100.873Z" fill="#F5F5F5"/>
<path d="M29.4805 103.168L21.3804 96.1967L23.6229 93.1378L29.06 97.8083L36.9907 88.2083L39.6829 90.8121L29.4805 103.168Z" fill="#F5F5F5"/>
<path d="M274.866 297.887C274.866 297.982 216.378 298.051 144.254 298.051C72.1299 298.051 13.6306 297.982 13.6306 297.887C13.6306 297.792 72.1007 297.723 144.254 297.723C216.407 297.723 274.866 297.799 274.866 297.887Z" fill="#263238"/>
<path d="M40.5294 113.261L22.6182 122.987C21.9684 123.293 21.4158 123.799 21.0286 124.441C20.6415 125.084 20.4368 125.835 20.4398 126.602V135.671C20.4193 143.921 22.6389 151.995 26.823 158.891C30.0525 164.212 34.3332 171.013 41.4522 174.9H44.6642C52.5949 172.283 58.5108 165.312 62.1258 159.346C66.3116 152.451 68.5332 144.376 68.5147 136.126V126.602C68.5138 125.832 68.3042 125.079 67.9118 124.436C67.5194 123.794 66.9615 123.29 66.3072 122.987L45.873 113.577C44.9678 113.159 41.4638 112.843 40.5294 113.261Z" fill="#95AAFF"/>
<path opacity="0.3" d="M40.5294 113.261L22.6182 122.987C21.9684 123.293 21.4158 123.799 21.0286 124.441C20.6415 125.084 20.4368 125.835 20.4398 126.602V135.671C20.4193 143.921 22.6389 151.995 26.823 158.891C30.0525 164.212 34.3332 171.013 41.4522 174.9H44.6642C52.5949 172.283 58.5108 165.312 62.1258 159.346C66.3116 152.451 68.5332 144.376 68.5147 136.126V126.602C68.5138 125.832 68.3042 125.079 67.9118 124.436C67.5194 123.794 66.9615 123.29 66.3072 122.987L45.873 113.577C44.9678 113.159 41.4638 112.843 40.5294 113.261Z" fill="black"/>
<path d="M39.8112 113.577L19.4004 122.987C18.746 123.29 18.1882 123.794 17.7958 124.436C17.4034 125.079 17.1938 125.832 17.1929 126.602V135.671C17.1933 144.07 19.4957 152.281 23.8088 159.263C28.1218 166.246 34.2517 171.688 41.423 174.9C49.3479 172.283 55.2638 165.312 58.8846 159.346C63.0704 152.451 65.2921 144.377 65.2736 136.126V126.602C65.2732 125.833 65.0644 125.08 64.6731 124.438C64.2818 123.795 63.7252 123.291 63.0719 122.987L42.6319 113.577C42.1853 113.374 41.7059 113.269 41.2215 113.269C40.7372 113.269 40.2578 113.374 39.8112 113.577Z" fill="#95AAFF"/>
<path opacity="0.3" d="M46.0764 154.712C52.9656 151.82 56.3842 143.432 53.7121 135.976C51.0399 128.521 43.2889 124.821 36.3998 127.713C29.5106 130.605 26.092 138.993 28.7641 146.448C31.4363 153.904 39.1872 157.603 46.0764 154.712Z" fill="black"/>
<path d="M41.2304 142.016C44.2977 142.016 46.7842 139.326 46.7842 136.006C46.7842 132.687 44.2977 129.996 41.2304 129.996C38.1631 129.996 35.6765 132.687 35.6765 136.006C35.6765 139.326 38.1631 142.016 41.2304 142.016Z" fill="white"/>
<path d="M31.092 150.65C31.9852 148.628 33.3948 146.924 35.1542 145.742C36.9136 144.559 38.9491 143.946 41.02 143.976C43.1436 143.976 45.2279 144.596 47.0532 145.771C48.8785 146.945 50.3773 148.631 51.3919 150.65C51.3919 150.65 48.1156 155.895 40.8799 155.706C39.0046 155.698 37.1543 155.24 35.462 154.366C33.7696 153.492 32.2772 152.223 31.092 150.65Z" fill="white"/>
<path d="M54.6098 141.214C54.6031 141.136 54.6031 141.058 54.6098 140.98C54.6098 140.81 54.6098 140.582 54.5572 140.298C54.5572 140.146 54.5572 139.975 54.5572 139.792C54.5572 139.609 54.4988 139.406 54.4696 139.16C54.4088 138.658 54.3151 138.162 54.1893 137.675C53.8718 136.325 53.3699 135.034 52.7001 133.845C51.8217 132.266 50.6719 130.885 49.3129 129.775C47.6712 128.424 45.7586 127.51 43.7299 127.108C41.4008 126.644 38.9994 126.862 36.7745 127.74C36.1723 127.966 35.5867 128.241 35.0225 128.561C34.4582 128.896 33.9158 129.272 33.3989 129.686C32.8732 130.114 32.372 130.577 31.898 131.07C31.4335 131.592 31.0004 132.145 30.6016 132.726C29.784 133.925 29.1473 135.256 28.7152 136.67C27.8041 139.602 27.8041 142.776 28.7152 145.708C29.1447 147.123 29.7816 148.454 30.6016 149.651C31.0004 150.235 31.4335 150.79 31.898 151.313C32.3705 151.807 32.8719 152.267 33.3989 152.691C34.4128 153.528 35.5421 154.187 36.7452 154.644C38.9702 155.522 41.3716 155.74 43.7007 155.276C45.5504 154.899 47.3057 154.104 48.8516 152.941C50.3974 151.779 51.699 150.277 52.6709 148.533C53.3332 147.351 53.8274 146.069 54.1368 144.728C54.262 144.238 54.3557 143.74 54.4171 143.236C54.4171 143.022 54.4872 142.819 54.5047 142.604C54.5222 142.39 54.5047 142.25 54.5047 142.099L54.5572 141.41C54.5513 141.332 54.5513 141.254 54.5572 141.176C54.5635 141.254 54.5635 141.332 54.5572 141.41C54.5572 141.587 54.5572 141.814 54.5572 142.105C54.5572 142.257 54.5572 142.427 54.5572 142.611C54.5572 142.794 54.5105 143.003 54.4813 143.243C54.4346 143.753 54.3487 144.258 54.2244 144.753C53.9281 146.122 53.4375 147.433 52.7702 148.64C51.1832 151.572 48.6972 153.81 45.744 154.964C42.7909 156.119 39.5573 156.117 36.6051 154.96C36.0039 154.726 35.4185 154.447 34.8531 154.126C34.2782 153.776 33.7278 153.381 33.2062 152.944C32.663 152.513 32.1479 152.042 31.6645 151.535C31.1996 151.009 30.7665 150.452 30.368 149.866C29.5273 148.642 28.8727 147.281 28.4291 145.834C27.9856 144.34 27.7513 142.783 27.7341 141.214C27.7504 139.645 27.9867 138.087 28.4349 136.594C28.8741 135.146 29.5269 133.784 30.368 132.562C30.7786 131.968 31.2233 131.402 31.6995 130.868C32.1812 130.361 32.6943 129.89 33.2354 129.459C33.7532 129.031 34.2976 128.643 34.8648 128.296C35.4301 127.972 36.0155 127.691 36.6168 127.455C38.8878 126.565 41.3374 126.347 43.7124 126.823C45.5963 127.215 47.3811 128.038 48.9472 129.237C50.5134 130.436 51.8248 131.983 52.7936 133.775C53.461 134.984 53.9515 136.297 54.2477 137.668C54.372 138.161 54.4579 138.664 54.5047 139.173C54.5047 139.394 54.5689 139.596 54.5806 139.805V140.317C54.5806 140.607 54.5806 140.835 54.5806 141.005C54.5957 141.074 54.6055 141.144 54.6098 141.214Z" fill="#263238"/>
<path d="M65.2034 133.668C65.2306 133.807 65.2443 133.949 65.2443 134.091C65.2443 134.395 65.2443 134.793 65.291 135.292C65.3377 135.791 65.3377 136.449 65.291 137.188C65.291 137.561 65.291 137.953 65.291 138.376C65.291 138.8 65.291 139.242 65.2151 139.704C65.1333 140.633 65.0749 141.656 64.8939 142.743C64.8179 143.287 64.7537 143.849 64.6486 144.425C64.5435 145 64.415 145.587 64.2982 146.194C63.7366 148.807 62.9546 151.358 61.9622 153.816C60.9366 156.262 59.7112 158.603 58.3005 160.812C57.6231 161.805 56.9982 162.765 56.3207 163.593C55.9937 164.01 55.69 164.434 55.3688 164.807L54.4403 165.868C53.8563 166.57 53.2723 167.132 52.77 167.632C52.3498 168.079 51.9072 168.501 51.4443 168.896L50.58 169.654C50.4852 169.746 50.3814 169.827 50.2705 169.894C50.3535 169.788 50.4454 169.691 50.545 169.603L51.3684 168.801C51.7363 168.46 52.1743 168.036 52.6532 167.537C53.1321 167.038 53.7161 166.45 54.2826 165.748L55.1936 164.674C55.509 164.301 55.7776 163.878 56.128 163.46C56.7879 162.633 57.4011 161.672 58.0727 160.673C59.4589 158.473 60.6665 156.147 61.6819 153.721C62.6688 151.274 63.4506 148.736 64.0179 146.137L64.3799 144.38C64.4851 143.812 64.5551 143.249 64.6427 142.712C64.8296 141.637 64.8997 140.62 64.9931 139.697C65.0457 139.236 65.0807 138.793 65.0924 138.376L65.145 137.195C65.1975 136.455 65.1859 135.817 65.1859 135.299C65.1859 134.78 65.1859 134.407 65.1859 134.098C65.1817 133.954 65.1876 133.811 65.2034 133.668Z" fill="#263238"/>
<path d="M207.209 297.887H69.1163C68.2116 297.87 67.3187 297.661 66.4888 297.271C65.6589 296.881 64.9081 296.318 64.2795 295.613C63.6509 294.909 63.1567 294.077 62.8252 293.166C62.4938 292.255 62.3315 291.282 62.3478 290.303V61.8855C62.3315 60.9064 62.4938 59.9335 62.8252 59.0223C63.1567 58.1111 63.6509 57.2796 64.2795 56.5752C64.9081 55.8709 65.6589 55.3075 66.4888 54.9174C67.3187 54.5272 68.2116 54.318 69.1163 54.3015H207.209C208.113 54.318 209.006 54.5273 209.836 54.9175C210.665 55.3077 211.416 55.8712 212.044 56.5756C212.672 57.2801 213.166 58.1117 213.496 59.0228C213.827 59.9339 213.989 60.9067 213.972 61.8855V290.316C213.987 291.293 213.825 292.265 213.493 293.174C213.161 294.084 212.668 294.914 212.04 295.617C211.412 296.32 210.662 296.883 209.833 297.272C209.004 297.662 208.112 297.87 207.209 297.887Z" fill="#263238"/>
<path d="M140.808 286.808C140.83 288.188 140.472 289.544 139.78 290.702C139.088 291.861 138.092 292.771 136.92 293.316C135.749 293.86 134.454 294.015 133.2 293.761C131.947 293.506 130.792 292.854 129.882 291.887C128.973 290.919 128.35 289.681 128.093 288.329C127.836 286.977 127.957 285.573 128.439 284.296C128.922 283.019 129.745 281.926 130.804 281.157C131.863 280.387 133.109 279.976 134.384 279.976C136.073 279.961 137.698 280.672 138.903 281.953C140.107 283.234 140.793 284.98 140.808 286.808Z" fill="#455A64"/>
<path d="M153.697 67.1817H122.745C122.457 67.1768 122.172 67.1104 121.907 66.9864C121.643 66.8624 121.403 66.6832 121.203 66.459C121.002 66.2348 120.844 65.97 120.738 65.6798C120.632 65.3896 120.58 65.0796 120.584 64.7675C120.575 64.1366 120.797 63.5275 121.202 63.0737C121.607 62.6199 122.162 62.3586 122.745 62.3469H153.697C154.28 62.3586 154.835 62.6199 155.24 63.0737C155.645 63.5275 155.867 64.1366 155.858 64.7675C155.863 65.0796 155.81 65.3896 155.704 65.6798C155.598 65.97 155.44 66.2348 155.24 66.459C155.039 66.6832 154.799 66.8624 154.535 66.9864C154.27 67.1104 153.985 67.1768 153.697 67.1817Z" fill="#455A64"/>
<path d="M209.066 71.6877H67.0022V275.103H209.066V71.6877Z" fill="white"/>
<path d="M209.066 71.6877H203.004V275.103H209.066V71.6877Z" fill="#F5F5F5"/>
<path d="M206.029 144.772C205.529 144.771 205.049 144.554 204.695 144.17C204.342 143.786 204.143 143.267 204.143 142.725V97.7325C204.143 97.1905 204.342 96.6706 204.695 96.2868C205.049 95.903 205.529 95.6865 206.029 95.6848C206.531 95.6848 207.013 95.9006 207.367 96.2846C207.722 96.6686 207.922 97.1894 207.922 97.7325V142.725C207.922 143.268 207.722 143.788 207.367 144.173C207.013 144.557 206.531 144.772 206.029 144.772Z" fill="#E0E0E0"/>
<path d="M190.536 117.982H85.7896C84.9903 117.982 84.2239 117.638 83.6587 117.027C83.0936 116.415 82.7761 115.586 82.7761 114.721C82.7761 113.856 83.0936 113.026 83.6587 112.415C84.2239 111.803 84.9903 111.459 85.7896 111.459H190.536C191.335 111.459 192.101 111.803 192.667 112.415C193.232 113.026 193.549 113.856 193.549 114.721C193.549 115.586 193.232 116.415 192.667 117.027C192.101 117.638 191.335 117.982 190.536 117.982Z" fill="#E0E0E0"/>
<path d="M174.423 94.168H108.531C107.731 94.168 106.965 93.8244 106.4 93.2128C105.835 92.6013 105.517 91.7718 105.517 90.9069C105.517 90.042 105.835 89.2125 106.4 88.6009C106.965 87.9893 107.731 87.6458 108.531 87.6458H174.423C175.222 87.6458 175.989 87.9893 176.554 88.6009C177.119 89.2125 177.437 90.042 177.437 90.9069C177.437 91.7718 177.119 92.6013 176.554 93.2128C175.989 93.8244 175.222 94.168 174.423 94.168Z" fill="#95AAFF"/>
<path d="M175.661 131.108H100.664C99.8649 131.108 99.0984 130.765 98.5332 130.153C97.9681 129.542 97.6506 128.712 97.6506 127.847C97.6506 126.982 97.9681 126.153 98.5332 125.541C99.0984 124.93 99.8649 124.586 100.664 124.586H175.661C176.057 124.586 176.449 124.671 176.815 124.834C177.18 124.998 177.512 125.239 177.792 125.541C178.072 125.844 178.294 126.204 178.445 126.599C178.597 126.995 178.675 127.419 178.675 127.847C178.675 128.276 178.597 128.7 178.445 129.095C178.294 129.491 178.072 129.85 177.792 130.153C177.512 130.456 177.18 130.696 176.815 130.86C176.449 131.024 176.057 131.108 175.661 131.108Z" fill="#E0E0E0"/>
<path d="M141.801 188.336H84.096C83.2967 188.336 82.5303 187.992 81.9651 187.381C81.4 186.769 81.0825 185.94 81.0825 185.075C81.0825 184.647 81.1605 184.223 81.3119 183.827C81.4633 183.431 81.6853 183.072 81.9651 182.769C82.245 182.466 82.5772 182.226 82.9428 182.062C83.3084 181.898 83.7002 181.814 84.096 181.814H141.801C142.197 181.814 142.589 181.898 142.954 182.062C143.32 182.226 143.652 182.466 143.932 182.769C144.212 183.072 144.434 183.431 144.585 183.827C144.737 184.223 144.814 184.647 144.814 185.075C144.814 185.94 144.497 186.769 143.932 187.381C143.367 187.992 142.6 188.336 141.801 188.336Z" fill="#E0E0E0"/>
<path d="M188.842 174.666H84.096C83.2967 174.666 82.5303 174.322 81.9651 173.711C81.4 173.099 81.0825 172.27 81.0825 171.405C81.0825 170.977 81.1605 170.553 81.312 170.158C81.4635 169.762 81.6856 169.403 81.9655 169.101C82.2454 168.799 82.5776 168.559 82.9432 168.396C83.3088 168.233 83.7005 168.149 84.096 168.15H188.842C189.238 168.149 189.629 168.233 189.995 168.396C190.361 168.559 190.693 168.799 190.973 169.101C191.253 169.403 191.475 169.762 191.626 170.158C191.778 170.553 191.856 170.977 191.856 171.405C191.856 171.833 191.778 172.257 191.626 172.653C191.475 173.048 191.253 173.408 190.973 173.711C190.693 174.013 190.361 174.254 189.995 174.418C189.63 174.581 189.238 174.666 188.842 174.666Z" fill="#E0E0E0"/>
<path d="M188.842 212.131H97.1599C95.4956 212.131 94.1465 213.591 94.1465 215.392C94.1465 217.193 95.4956 218.653 97.1599 218.653H188.842C190.506 218.653 191.855 217.193 191.855 215.392C191.855 213.591 190.506 212.131 188.842 212.131Z" fill="#E0E0E0"/>
<path d="M188.842 232.576H84.096C83.2967 232.576 82.5303 232.232 81.9651 231.621C81.4 231.009 81.0825 230.18 81.0825 229.315C81.0856 228.452 81.4045 227.626 81.9693 227.017C82.5341 226.408 83.2988 226.066 84.096 226.066H188.842C189.238 226.066 189.63 226.151 189.995 226.315C190.361 226.479 190.693 226.719 190.973 227.022C191.253 227.324 191.475 227.684 191.626 228.08C191.778 228.475 191.856 228.899 191.856 229.328C191.853 230.19 191.534 231.016 190.969 231.625C190.404 232.234 189.639 232.576 188.842 232.576Z" fill="#E0E0E0"/>
<path d="M188.842 246.745H84.096C83.2967 246.745 82.5303 246.402 81.9651 245.79C81.4 245.179 81.0825 244.349 81.0825 243.484C81.0825 242.619 81.4 241.79 81.9651 241.178C82.5303 240.567 83.2967 240.223 84.096 240.223H188.842C189.238 240.223 189.63 240.307 189.995 240.471C190.361 240.635 190.693 240.875 190.973 241.178C191.253 241.481 191.475 241.841 191.626 242.236C191.778 242.632 191.856 243.056 191.856 243.484C191.856 244.349 191.538 245.179 190.973 245.79C190.408 246.402 189.641 246.745 188.842 246.745Z" fill="#E0E0E0"/>
<path d="M88.8088 215.392C88.8088 216.062 88.6251 216.717 88.2809 217.275C87.9367 217.832 87.4474 218.266 86.8751 218.522C86.3028 218.778 85.6731 218.845 85.0658 218.714C84.4584 218.583 83.9006 218.259 83.4631 217.785C83.0256 217.311 82.7279 216.706 82.6078 216.049C82.4877 215.391 82.5505 214.71 82.7883 214.091C83.0261 213.472 83.4282 212.944 83.9438 212.572C84.4593 212.201 85.0651 212.003 85.6844 212.004C86.5136 212.006 87.3083 212.364 87.8941 212.999C88.4798 213.634 88.8088 214.495 88.8088 215.392Z" fill="#95AAFF"/>
<path d="M188.842 161.931H97.1541C96.3549 161.931 95.5884 161.588 95.0232 160.976C94.4581 160.364 94.1406 159.535 94.1406 158.67C94.1406 157.805 94.4581 156.976 95.0232 156.364C95.5884 155.753 96.3549 155.409 97.1541 155.409H188.842C189.238 155.409 189.63 155.493 189.995 155.657C190.361 155.821 190.693 156.061 190.973 156.364C191.253 156.667 191.475 157.026 191.626 157.422C191.778 157.818 191.855 158.242 191.855 158.67C191.855 159.098 191.778 159.522 191.626 159.918C191.475 160.314 191.253 160.673 190.973 160.976C190.693 161.279 190.361 161.519 189.995 161.683C189.63 161.847 189.238 161.931 188.842 161.931Z" fill="#E0E0E0"/>
<path d="M85.6844 162.058C87.4132 162.058 88.8147 160.541 88.8147 158.67C88.8147 156.799 87.4132 155.282 85.6844 155.282C83.9557 155.282 82.5542 156.799 82.5542 158.67C82.5542 160.541 83.9557 162.058 85.6844 162.058Z" fill="#95AAFF"/>
<path d="M185.916 267.481H162.41C161.137 267.481 159.916 266.934 159.016 265.96C158.116 264.986 157.61 263.664 157.61 262.286C157.61 260.909 158.116 259.587 159.016 258.613C159.916 257.639 161.137 257.091 162.41 257.091H185.916C187.19 257.091 188.411 257.639 189.311 258.613C190.211 259.587 190.717 260.909 190.717 262.286C190.717 263.664 190.211 264.986 189.311 265.96C188.411 266.934 187.19 267.481 185.916 267.481Z" fill="#95AAFF"/>
<path d="M64.8239 22.3412L40.4595 35.569C39.5679 35.9792 38.8075 36.664 38.2727 37.5382C37.738 38.4125 37.4525 39.4375 37.4519 40.486V52.8226C37.423 64.0501 40.445 75.0391 46.1418 84.4226C50.5335 91.64 56.3501 100.893 66.0387 106.176H70.407C81.1876 102.618 89.2351 93.1316 94.1583 85.023C99.8551 75.6395 102.877 64.6505 102.848 53.423V40.486C102.85 39.4404 102.568 38.4173 102.037 37.5434C101.507 36.6695 100.751 35.983 99.8639 35.569L72.0889 22.752C70.8508 22.2022 66.062 21.7724 64.8239 22.3412Z" fill="#95AAFF"/>
<path opacity="0.3" d="M64.8239 22.3412L40.4595 35.569C39.5679 35.9792 38.8075 36.664 38.2727 37.5382C37.738 38.4125 37.4525 39.4375 37.4519 40.486V52.8226C37.423 64.0501 40.445 75.0391 46.1418 84.4226C50.5335 91.64 56.3501 100.893 66.0387 106.176H70.407C81.1876 102.618 89.2351 93.1316 94.1583 85.023C99.8551 75.6395 102.877 64.6505 102.848 53.423V40.486C102.85 39.4404 102.568 38.4173 102.037 37.5434C101.507 36.6695 100.751 35.983 99.8639 35.569L72.0889 22.752C70.8508 22.2022 66.062 21.7724 64.8239 22.3412Z" fill="black"/>
<path d="M63.8428 22.7521L36.0853 35.569C35.1943 35.9795 34.4347 36.6645 33.9009 37.5389C33.3672 38.4132 33.0829 39.4381 33.0835 40.486V52.8226C33.0849 64.2459 36.2167 75.4121 42.0827 84.9091C47.9487 94.406 56.2855 101.807 66.0386 106.176C76.8193 102.618 84.8668 93.1316 89.784 85.023C95.4834 75.6408 98.5055 64.651 98.474 53.423V40.486C98.4746 39.4381 98.1903 38.4132 97.6565 37.5389C97.1228 36.6645 96.3631 35.9795 95.4722 35.569L67.7439 22.7521C67.1275 22.4662 66.4639 22.3188 65.7933 22.3188C65.1227 22.3188 64.4592 22.4662 63.8428 22.7521Z" fill="#95AAFF"/>
<path d="M98.3863 50.0986C98.3935 50.1468 98.3935 50.1959 98.3863 50.244C98.3863 50.3578 98.3863 50.4968 98.3863 50.6674C98.3863 51.0719 98.4155 51.6154 98.4389 52.3043C98.4622 52.9932 98.4973 53.878 98.4389 54.8892C98.4389 55.3948 98.4389 55.932 98.3921 56.5008C98.3921 56.7915 98.3921 57.0822 98.3921 57.3856C98.3921 57.689 98.3396 58.0176 98.3104 58.3146C98.1936 59.5786 98.1177 60.969 97.8724 62.4416C97.7614 63.1747 97.6738 63.9458 97.5337 64.7231C97.3935 65.5005 97.2183 66.3031 97.0548 67.1247C96.2835 70.6771 95.2102 74.1447 93.8486 77.4832C92.4573 80.8064 90.7961 83.9895 88.8846 86.9948C87.9619 88.3473 87.1326 89.6555 86.1982 90.7868C85.7485 91.3556 85.3397 91.9307 84.9017 92.4363L83.6403 93.8899C82.8577 94.8379 82.0518 95.59 81.3802 96.2915C81.0357 96.6328 80.7261 96.9614 80.4283 97.2458L79.6107 97.96L78.4427 98.9965L78.1332 99.2619C78.0631 99.3188 78.0222 99.3441 78.0222 99.3378C78.0222 99.3314 78.0222 99.2998 78.1098 99.2303L78.4018 98.9459L79.5289 97.8652L80.3524 97.0878C80.6502 96.8034 80.9364 96.4558 81.2868 96.1146C81.9467 95.4067 82.7351 94.6483 83.506 93.694L84.7499 92.2278C85.1821 91.7222 85.585 91.147 86.023 90.5782C86.9282 89.4533 87.775 88.145 88.6744 86.7862C90.5672 83.7873 92.2145 80.6152 93.5975 77.3062C94.9472 73.9846 96.0202 70.5391 96.8037 67.011C96.973 66.1957 97.1307 65.3994 97.2942 64.6283C97.4577 63.8573 97.5278 63.0862 97.6446 62.3531C97.9016 60.8869 97.9892 59.5028 98.1177 58.2451C98.1527 57.9354 98.1819 57.6131 98.2111 57.3287C98.2403 57.0443 98.2111 56.7346 98.2461 56.4502C98.2695 55.8814 98.2929 55.3442 98.3162 54.8386C98.3805 53.8338 98.3629 52.9426 98.3629 52.2601V50.6738V50.244C98.3619 50.1944 98.3698 50.145 98.3863 50.0986Z" fill="#263238"/>
<path d="M76.7726 66.676H73.8117V49.2392C73.7596 47.303 73.0122 45.4651 71.7283 44.1155C70.4444 42.766 68.725 42.0111 66.9351 42.0111C65.1453 42.0111 63.4259 42.766 62.142 44.1155C60.858 45.4651 60.1107 47.303 60.0585 49.2392V66.676H57.0977V49.2392C57.1602 46.4606 58.2241 43.8185 60.0622 41.8773C61.9003 39.936 64.3668 38.8494 66.9351 38.8494C69.5035 38.8494 71.97 39.936 73.8081 41.8773C75.6461 43.8185 76.7101 46.4606 76.7726 49.2392V66.676Z" fill="#F5F5F5"/>
<path d="M76.8017 54.845H57.0742C55.2003 54.845 53.6812 56.4889 53.6812 58.5169V73.6596C53.6812 75.6876 55.2003 77.3315 57.0742 77.3315H76.8017C78.6756 77.3315 80.1948 75.6876 80.1948 73.6596V58.5169C80.1948 56.4889 78.6756 54.845 76.8017 54.845Z" fill="white"/>
<path d="M76.8016 77.3316C77.0986 77.2976 77.3931 77.2427 77.6835 77.1673C78.391 76.9463 79.0121 76.4807 79.4519 75.8415C79.8917 75.2024 80.1259 74.4249 80.1188 73.6281C80.1188 72.8886 80.1188 72.086 80.1188 71.2202C80.1188 69.4948 80.1188 67.5293 80.1188 65.3552C80.1188 63.1811 80.1188 60.8111 80.1188 58.2578C80.0748 57.6215 79.8725 57.0099 79.5331 56.488C79.1938 55.9661 78.7302 55.5534 78.1916 55.2938C77.617 55.0378 76.9944 54.9338 76.3753 54.9904H74.4131L57.0741 54.9841C56.3453 54.9838 55.6377 55.2493 55.0655 55.7378C54.4933 56.2263 54.0899 56.9093 53.9205 57.6764C53.8447 58.0583 53.8133 58.4489 53.8271 58.8393V62.3974C53.8271 65.5574 53.8271 68.5405 53.8271 71.4161C53.8796 72.8444 53.6052 74.317 54.2826 75.4419C54.5825 75.9945 55.015 76.449 55.5342 76.7572C56.0534 77.0654 56.64 77.2158 57.2318 77.1926H63.8018L73.3152 77.2494H75.8964H76.568C76.6457 77.2415 76.7239 77.2415 76.8016 77.2494C76.724 77.2589 76.6457 77.2589 76.568 77.2494H75.8964H73.3152L63.8018 77.3H57.2318C56.7493 77.3234 56.2674 77.2395 55.816 77.0535C55.3646 76.8674 54.9532 76.5832 54.6073 76.2184C54.2614 75.8535 53.9883 75.4158 53.8049 74.9322C53.6215 74.4486 53.5316 73.9295 53.5409 73.4069V71.4161C53.5409 68.5405 53.5409 65.5258 53.5409 62.3974V58.8646C53.5234 58.4403 53.5567 58.0155 53.6402 57.6006C53.83 56.7723 54.2723 56.0375 54.8958 55.515C55.5244 54.9769 56.3019 54.6831 57.1033 54.6807H74.378H76.3403C76.9986 54.6263 77.6595 54.7433 78.2675 55.022C78.8484 55.3027 79.3477 55.7492 79.712 56.3137C80.0762 56.8782 80.2915 57.5394 80.3348 58.2262C80.3348 60.8048 80.3348 63.1685 80.3348 65.3426C80.3348 67.5166 80.3348 69.4822 80.3348 71.2075C80.3348 72.0734 80.3348 72.876 80.3348 73.6154C80.3355 74.3076 80.1575 74.9861 79.8209 75.5746C79.363 76.3919 78.6269 76.982 77.7711 77.2178C77.4573 77.3209 77.1285 77.3595 76.8016 77.3316Z" fill="#263238"/>
<path d="M68.9702 66.6698C69.2375 66.3813 69.4494 66.0385 69.5937 65.661C69.738 65.2836 69.8119 64.8789 69.8111 64.4704C69.8146 63.8816 69.6659 63.3035 69.3819 62.8012C69.098 62.299 68.69 61.8926 68.204 61.6279C67.718 61.3632 67.1733 61.2507 66.6313 61.3031C66.0894 61.3555 65.5718 61.5707 65.1368 61.9244C64.7019 62.2782 64.3669 62.7564 64.1697 63.3052C63.9725 63.854 63.9209 64.4515 64.0208 65.0303C64.1206 65.6091 64.3678 66.1462 64.7347 66.5811C65.1015 67.0159 65.5733 67.3312 66.0969 67.4914L65.472 70.487H68.246L67.662 67.4914C68.1467 67.3416 68.5873 67.0585 68.941 66.6698" fill="#95AAFF"/>
<path d="M249.847 89.2194V114.828C249.9 119.252 250.501 126.204 244.007 125.977C238.406 125.345 236.917 119.574 236.876 115.441C236.876 113.482 236.835 111.845 236.818 111.649C236.818 111.649 230.686 111.106 230.166 104.545C229.915 101.385 229.892 94.8063 229.933 88.8592C229.957 85.7791 231.053 82.822 233 80.576C234.948 78.33 237.606 76.9596 240.445 76.7374L241.029 76.6932C247.377 76.5921 249.952 82.3622 249.847 89.2194Z" fill="#FFBF9D"/>
<path d="M236.835 111.649C239.637 111.416 242.318 110.32 244.562 108.489C244.562 108.489 242.962 113.438 236.87 113.324L236.835 111.649Z" fill="#FF9A6C"/>
<path d="M240.31 91.5513C240.433 91.684 241.134 91.071 242.144 91.0457C243.154 91.0204 243.896 91.5513 244.025 91.4123C244.153 91.2732 243.955 91.1026 243.622 90.8561C243.177 90.533 242.65 90.3694 242.115 90.3885C241.584 90.4066 241.072 90.6081 240.655 90.9636C240.351 91.2416 240.252 91.4881 240.31 91.5513Z" fill="#263238"/>
<path d="M240.293 94.6546C240.305 94.8871 240.401 95.1051 240.561 95.2612C240.72 95.4174 240.93 95.4992 241.145 95.4888C241.25 95.4897 241.354 95.4678 241.451 95.4244C241.548 95.3811 241.635 95.3171 241.709 95.2364C241.782 95.1556 241.84 95.0597 241.879 94.9544C241.917 94.849 241.936 94.7363 241.934 94.623C241.92 94.3922 241.824 94.1762 241.666 94.0205C241.508 93.8648 241.301 93.7817 241.087 93.7887C240.982 93.7887 240.878 93.8112 240.782 93.8548C240.685 93.8984 240.597 93.9622 240.523 94.0427C240.449 94.1232 240.391 94.2187 240.352 94.3237C240.312 94.4287 240.292 94.5412 240.293 94.6546Z" fill="#263238"/>
<path d="M237.77 99.2239C237.266 99.0971 236.751 99.0377 236.234 99.0469C235.994 99.0469 235.767 99.0027 235.714 98.8321C235.675 98.5674 235.712 98.2962 235.819 98.0547C236.006 97.4227 236.193 96.7465 236.403 96.0386C237.192 93.1693 237.746 90.8183 237.641 90.7867C237.536 90.7551 236.806 93.0493 236.018 95.9185C235.831 96.6264 235.65 97.3026 235.475 97.9473C235.348 98.2694 235.329 98.6294 235.422 98.9648C235.461 99.0537 235.519 99.1314 235.591 99.1918C235.663 99.2521 235.747 99.2934 235.837 99.3124C235.973 99.3296 236.11 99.3296 236.246 99.3124C236.755 99.3486 237.267 99.3189 237.77 99.2239Z" fill="#263238"/>
<path d="M240.742 86.8746C240.842 87.1211 241.654 86.9378 242.629 86.9883C243.604 87.0389 244.381 87.2727 244.515 87.0389C244.562 86.9315 244.41 86.7039 244.083 86.4891C243.647 86.2245 243.16 86.0751 242.66 86.0531C242.161 86.0312 241.664 86.1372 241.21 86.3626C240.865 86.5459 240.702 86.7608 240.742 86.8746Z" fill="#263238"/>
<path d="M231.101 88.5178C231.212 88.7201 232 88.5178 232.964 88.4673C233.927 88.4167 234.716 88.5684 234.821 88.3598C234.862 88.2587 234.704 88.0817 234.371 87.9237C233.92 87.7292 233.436 87.6429 232.952 87.6709C232.461 87.6856 231.979 87.8149 231.539 88.0501C231.212 88.2334 231.054 88.423 231.101 88.5178Z" fill="#263238"/>
<path d="M221.92 82.9752C221.954 82.8418 222.012 82.7172 222.092 82.6087C222.171 82.5002 222.269 82.4099 222.381 82.3432C222.866 82.1046 223.4 82.0108 223.929 82.0714C225.546 82.0391 227.124 81.5205 228.484 80.5736C229.12 79.5857 229.829 78.6556 230.604 77.7928C232.444 75.7451 233.95 74.3484 235.515 73.6658C237.536 72.7873 240.917 72.4018 243.026 73.0338C245.134 73.6658 247.026 75.486 247.324 77.8181C248.492 76.7373 250.279 76.75 251.721 77.3757H251.757C253.357 78.0077 254.268 79.8278 254.741 81.5974C255.214 83.367 255.418 85.263 256.283 86.8493C256.464 87.178 256.68 87.5761 256.522 87.9237C256.449 88.0496 256.342 88.1484 256.216 88.2071C256.09 88.2658 255.95 88.2816 255.815 88.2524C255.545 88.1897 255.29 88.0647 255.068 87.8858C255.249 88.3535 255.424 88.8149 255.605 89.2762C255.021 89.3863 254.42 89.3452 253.853 89.1561C253.559 90.7338 253.178 92.2912 252.714 93.8203C252.116 93.744 251.513 93.9033 251.015 94.269C250.431 94.8189 250.203 95.849 249.263 95.4572C248.79 95.2549 248.358 94.1932 248.194 93.656C247.138 90.1558 246.789 86.4507 247.172 82.7919C246.508 82.0264 245.715 81.4044 244.836 80.9591L244.906 81.0286C243.213 80.3966 241.297 79.7646 239.691 80.6241C238.447 81.2941 237.717 82.6908 236.771 83.7841C235.915 84.8235 234.872 85.6636 233.707 86.2535C232.541 86.8434 231.277 87.1709 229.991 87.2159C229.903 89.0613 230.043 91.6715 229.956 93.5359L228.519 90.5781C228.406 90.3732 228.303 90.1623 228.21 89.9461V89.8829C228.066 89.5219 227.904 89.1696 227.725 88.8275C227.526 89.0004 227.277 89.0907 227.022 89.0819C226.767 89.0731 226.523 88.9659 226.335 88.7797C226.146 88.5934 226.026 88.3404 225.995 88.0664C225.964 87.7923 226.024 87.5153 226.166 87.2854C226.31 87.0708 226.483 86.8811 226.68 86.7229C226.471 86.9426 226.213 87.0996 225.932 87.1783C225.65 87.257 225.354 87.2547 225.074 87.1717C224.796 87.08 224.553 86.8915 224.384 86.6355C224.215 86.3796 224.129 86.0704 224.139 85.756C224.163 85.5446 224.238 85.3437 224.356 85.173C224.474 85.0023 224.63 84.8678 224.811 84.7827C224.059 84.848 223.306 84.6675 222.65 84.2645C222.183 83.9927 221.762 83.5566 221.92 82.9752Z" fill="#263238"/>
<path d="M245.403 78.5828C245.614 78.7747 245.809 78.9861 245.987 79.2148C246.467 79.8392 246.787 80.5888 246.915 81.3888C247.021 81.9376 247.074 82.4967 247.073 83.0573C247.073 83.6893 247.032 84.3213 246.985 84.9912C246.93 85.7059 246.917 86.4236 246.945 87.14C246.961 87.5225 247.006 87.903 247.079 88.2776C247.133 88.6772 247.28 89.0554 247.505 89.3773C247.611 89.5049 247.746 89.6005 247.897 89.6548C248.047 89.709 248.208 89.7202 248.364 89.687C248.66 89.6283 248.929 89.4636 249.129 89.2193C249.459 88.7304 249.661 88.1538 249.713 87.5508H249.59C249.771 88.047 250.019 88.5114 250.326 88.9286C250.62 89.3122 251.037 89.5606 251.494 89.6238C251.709 89.647 251.925 89.6054 252.119 89.5037C252.3 89.4015 252.448 89.243 252.545 89.0487C252.633 88.8698 252.677 88.6697 252.674 88.4672C252.664 88.2787 252.594 88.0997 252.475 87.9616L252.411 88.0248C252.772 88.4712 253.216 88.8308 253.713 89.0803C253.888 89.1645 254.023 89.2214 254.116 89.2509L254.262 89.2888L254.128 89.2256C254.034 89.1814 253.9 89.1245 253.737 89.036C253.255 88.7717 252.826 88.4065 252.475 87.9616L252.411 88.0248C252.51 88.1624 252.568 88.33 252.575 88.5044C252.582 88.6788 252.539 88.8514 252.452 88.9981C252.365 89.1695 252.233 89.3084 252.072 89.3963C251.891 89.4908 251.688 89.526 251.488 89.4974C251.062 89.4444 250.669 89.2186 250.39 88.8654C250.097 88.4554 249.859 88.0021 249.684 87.5192L249.596 87.3107L249.555 87.5382C249.493 88.1153 249.291 88.6645 248.971 89.1308C248.788 89.3454 248.547 89.4915 248.282 89.548C248.15 89.577 248.013 89.5683 247.885 89.5229C247.757 89.4775 247.642 89.3968 247.552 89.2888C247.342 88.9876 247.207 88.6328 247.161 88.2587C247.089 87.8922 247.042 87.5204 247.021 87.1464C246.993 86.4341 247.006 85.7206 247.061 85.0102C247.096 84.3276 247.137 83.683 247.131 83.07C247.128 82.5024 247.069 81.9368 246.956 81.3825C246.814 80.5674 246.473 79.8081 245.969 79.1832C245.813 78.9496 245.622 78.7465 245.403 78.5828Z" fill="#455A64"/>
<path d="M226.65 84.9596L226.703 85.0038C226.751 85.0478 226.802 85.0879 226.855 85.1239C226.934 85.1944 227.021 85.2558 227.112 85.3072C227.231 85.3833 227.354 85.4529 227.48 85.5157C228.292 85.9143 229.183 86.088 230.073 86.0213C231.396 85.9247 232.666 85.4154 233.728 84.5551C235.014 83.4968 236.083 82.1628 236.87 80.6367C237.314 79.8467 237.67 79.0314 238.038 78.2793C238.416 77.545 238.888 76.8725 239.44 76.2822C239.926 75.7462 240.528 75.3507 241.192 75.132C241.492 75.042 241.804 75.0036 242.115 75.0182C242.398 75.0414 242.677 75.1052 242.944 75.2078C243.416 75.3811 243.848 75.6612 244.211 76.0294C244.486 76.3072 244.717 76.6317 244.895 76.9901C245.036 77.3032 245.14 77.6345 245.204 77.976C245.204 77.976 245.204 77.976 245.204 77.9065C245.204 77.8369 245.204 77.7864 245.175 77.7042C245.126 77.448 245.048 77.1995 244.941 76.9648C244.532 76.0953 243.83 75.4298 242.979 75.1067C242.698 75.0009 242.406 74.935 242.109 74.9108C241.786 74.8961 241.463 74.9344 241.151 75.0245C240.468 75.2428 239.847 75.6451 239.347 76.1937C238.796 76.7905 238.329 77.472 237.962 78.2161C237.56 78.9745 237.197 79.7835 236.765 80.5735C235.983 82.0796 234.929 83.3995 233.664 84.454C232.624 85.3068 231.379 85.818 230.078 85.9265C229.202 86.0013 228.323 85.8452 227.515 85.4715C227.217 85.3205 226.928 85.1495 226.65 84.9596Z" fill="#455A64"/>
<path d="M226.102 82.0778C226.102 82.0778 226.172 82.1473 226.318 82.2421C226.523 82.3771 226.738 82.4954 226.96 82.596C227.29 82.748 227.632 82.8685 227.982 82.9562C228.409 83.0651 228.846 83.1286 229.284 83.1459C229.724 83.1576 230.164 83.1258 230.598 83.0511C230.95 82.9869 231.296 82.8896 231.632 82.7603C231.861 82.6757 232.084 82.5721 232.298 82.4507C232.378 82.4114 232.455 82.3627 232.526 82.3053C232.526 82.3053 232.181 82.4633 231.603 82.6592C231.266 82.7678 230.922 82.8523 230.575 82.912C230.149 82.9761 229.72 83.0036 229.29 82.9942C228.86 82.9736 228.433 82.9165 228.011 82.8235C227.667 82.7416 227.33 82.6318 227.001 82.4949C226.44 82.2611 226.113 82.0525 226.102 82.0778Z" fill="#455A64"/>
<path d="M231.06 91.5515C231.176 91.6842 231.877 91.0712 232.893 91.0459C233.91 91.0206 234.645 91.5515 234.774 91.4125C234.902 91.2734 234.698 91.1028 234.371 90.8563C233.924 90.5335 233.395 90.37 232.858 90.3886C232.329 90.4063 231.819 90.608 231.404 90.9638C231.095 91.2418 230.995 91.4883 231.06 91.5515Z" fill="#263238"/>
<path d="M232.093 94.6546C232.107 94.8854 232.203 95.1014 232.361 95.2571C232.519 95.4128 232.727 95.4959 232.94 95.4888C233.045 95.4897 233.149 95.4678 233.246 95.4245C233.343 95.3813 233.432 95.3174 233.506 95.2368C233.58 95.1561 233.638 95.0603 233.677 94.9549C233.716 94.8495 233.736 94.7366 233.734 94.623C233.719 94.3917 233.622 94.1756 233.463 94.0201C233.304 93.8646 233.096 93.7817 232.882 93.7888C232.777 93.7887 232.674 93.8112 232.577 93.8549C232.481 93.8986 232.393 93.9625 232.32 94.0431C232.247 94.1237 232.189 94.2192 232.15 94.3242C232.111 94.4292 232.092 94.5415 232.093 94.6546Z" fill="#263238"/>
<path d="M249.689 94.1173C249.788 94.0604 253.777 92.4551 253.935 96.9486C254.093 101.442 249.899 100.696 249.888 100.57C249.876 100.444 249.689 94.1173 249.689 94.1173Z" fill="#FFBF9D"/>
<path d="M251.12 98.813C251.12 98.813 251.196 98.8636 251.319 98.9205C251.493 98.9936 251.687 98.9936 251.862 98.9205C252.123 98.7243 252.331 98.4563 252.464 98.1441C252.598 97.8319 252.652 97.4869 252.621 97.1446C252.621 96.7589 252.539 96.3784 252.382 96.0322C252.336 95.8914 252.259 95.7651 252.157 95.6646C252.055 95.5642 251.931 95.4929 251.798 95.4571C251.714 95.4393 251.628 95.4527 251.552 95.4952C251.477 95.5377 251.417 95.6068 251.383 95.691C251.33 95.8174 251.383 95.9058 251.336 95.9185C251.289 95.9311 251.249 95.849 251.272 95.6594C251.294 95.5478 251.347 95.4462 251.424 95.3686C251.537 95.2732 251.678 95.226 251.821 95.2359C251.993 95.2659 252.154 95.3425 252.291 95.4585C252.428 95.5746 252.536 95.7263 252.603 95.8995C252.799 96.2872 252.901 96.7218 252.901 97.1635C252.901 98.0673 252.516 98.9331 251.92 99.148C251.81 99.188 251.693 99.2009 251.578 99.1856C251.463 99.1702 251.352 99.1272 251.254 99.0595C251.12 98.9205 251.079 98.8194 251.12 98.813Z" fill="#FF9A6C"/>
<path d="M240.725 100.121C240.76 100.121 240.76 100.387 240.62 100.753C240.416 101.247 240.083 101.664 239.662 101.954C239.252 102.253 238.766 102.403 238.272 102.384C237.892 102.346 237.688 102.207 237.688 102.175C237.688 102.144 237.922 102.175 238.272 102.175C238.717 102.14 239.147 101.983 239.522 101.72C239.9 101.458 240.217 101.105 240.45 100.69C240.608 100.343 240.678 100.109 240.725 100.121Z" fill="#263238"/>
<path d="M261.632 277.821L262.87 292.989L267.262 304.719C267.334 304.923 267.365 305.142 267.353 305.36C267.341 305.578 267.286 305.791 267.192 305.985C267.098 306.179 266.968 306.348 266.808 306.483C266.649 306.618 266.465 306.714 266.269 306.766C266.037 306.841 265.792 306.857 265.553 306.814C265.314 306.77 265.087 306.667 264.891 306.514C262.385 304.542 253.351 297.286 253.252 296.345C253.123 295.119 250.816 280.184 250.816 280.184L261.632 277.821Z" fill="#455A64"/>
<path d="M266.304 306.785L253.036 294.632L253.17 295.757C253.258 296.389 253.269 296.705 253.666 297.091C257.192 300.547 260.897 303.784 264.762 306.785C265 306.906 265.259 306.968 265.522 306.968C265.784 306.968 266.043 306.906 266.281 306.785H266.304Z" fill="#263238"/>
<path d="M255.617 289.892C255.811 290.001 255.959 290.186 256.031 290.409C256.103 290.633 256.092 290.877 256.002 291.093C255.885 291.301 255.702 291.457 255.487 291.53C255.273 291.603 255.04 291.589 254.834 291.491C254.632 291.375 254.478 291.179 254.404 290.944C254.33 290.709 254.342 290.453 254.437 290.227C254.579 290.022 254.785 289.881 255.017 289.831C255.249 289.781 255.489 289.825 255.693 289.955" fill="white"/>
<path d="M262.181 300.529C262.269 300.566 262.52 299.732 263.349 299.214C263.876 298.936 264.443 298.758 265.025 298.689C265.025 298.651 264.833 298.557 264.482 298.544C264.02 298.54 263.565 298.673 263.168 298.93C262.781 299.172 262.468 299.533 262.269 299.966C262.14 300.295 262.14 300.522 262.181 300.529Z" fill="#263238"/>
<path d="M263.454 302.444C263.53 302.507 263.956 301.957 264.704 301.654C265.176 301.506 265.655 301.39 266.141 301.306C265.895 301.184 265.627 301.125 265.357 301.131C265.087 301.138 264.822 301.21 264.581 301.344C263.729 301.698 263.384 302.412 263.454 302.444Z" fill="#263238"/>
<path d="M259.933 298.146C260.517 297.643 261.136 297.189 261.784 296.787C262.485 296.477 263.205 296.221 263.939 296.022C263.143 295.893 262.33 296.058 261.632 296.49C260.429 297.116 259.88 298.108 259.933 298.146Z" fill="#263238"/>
<path d="M259.179 293.558C259.226 293.646 260.014 293.204 261.077 293.052C262.14 292.9 263.022 293.052 263.045 292.97C262.419 292.644 261.709 292.555 261.03 292.717C260.343 292.761 259.69 293.058 259.179 293.558Z" fill="#263238"/>
<path d="M258.712 289.108C259.326 288.774 259.996 288.577 260.682 288.527C261.368 288.477 262.056 288.576 262.707 288.818C262.707 288.78 262.549 288.609 262.181 288.445C261.697 288.239 261.176 288.153 260.657 288.192C260.139 288.224 259.635 288.386 259.185 288.666C258.835 288.881 258.677 289.077 258.712 289.108Z" fill="#263238"/>
<path d="M260.552 287.68C260.552 287.68 260.587 287.471 260.517 287.105C260.414 286.583 260.215 286.089 259.933 285.651C259.74 285.306 259.449 285.037 259.103 284.887C258.983 284.848 258.856 284.847 258.735 284.886C258.615 284.924 258.508 284.999 258.426 285.101C258.356 285.203 258.306 285.318 258.278 285.441C258.25 285.563 258.245 285.691 258.262 285.816C258.364 286.336 258.629 286.803 259.012 287.136C259.395 287.469 259.873 287.648 260.365 287.642C260.856 287.651 261.338 287.504 261.753 287.22C262.168 286.936 262.497 286.527 262.701 286.043C262.747 285.925 262.768 285.797 262.762 285.669C262.756 285.541 262.723 285.416 262.666 285.304C262.591 285.194 262.488 285.111 262.369 285.065C262.251 285.019 262.122 285.012 262 285.045C261.647 285.168 261.327 285.385 261.072 285.677C260.708 286.038 260.406 286.466 260.178 286.941C260.084 287.108 260.024 287.296 260.003 287.49C260.336 286.874 260.751 286.314 261.235 285.828C261.465 285.583 261.745 285.401 262.053 285.297C262.119 285.277 262.189 285.28 262.254 285.305C262.319 285.33 262.375 285.376 262.415 285.436C262.447 285.513 262.463 285.596 262.463 285.68C262.463 285.764 262.447 285.847 262.415 285.923C262.229 286.333 261.94 286.678 261.582 286.92C261.224 287.161 260.81 287.289 260.388 287.288C259.972 287.29 259.567 287.14 259.238 286.863C258.91 286.585 258.677 286.196 258.578 285.759C258.549 285.586 258.583 285.407 258.671 285.259C258.715 285.201 258.774 285.158 258.841 285.137C258.908 285.115 258.979 285.116 259.045 285.139C259.338 285.267 259.588 285.487 259.763 285.771C260.133 286.349 260.4 286.997 260.552 287.68Z" fill="#263238"/>
<path d="M226.277 278.604L226.826 291.466C226.826 291.466 214.159 296.357 214.036 298.746L238.593 298.55L238.541 278.472L226.277 278.604Z" fill="#455A64"/>
<path d="M234.412 290.322C234.643 290.383 234.844 290.538 234.974 290.754C235.104 290.97 235.154 291.231 235.113 291.485C235.042 291.734 234.888 291.945 234.68 292.077C234.473 292.21 234.227 292.253 233.991 292.199C233.748 292.134 233.536 291.971 233.399 291.743C233.263 291.516 233.211 291.24 233.256 290.973C233.352 290.716 233.534 290.509 233.766 290.392C233.998 290.275 234.262 290.257 234.505 290.341" fill="#E0E0E0"/>
<path d="M238.593 298.55L238.512 296.528L214.994 297.47C214.994 297.47 213.908 297.963 214.036 298.734L238.593 298.55Z" fill="#263238"/>
<path d="M226.429 291.352C226.429 291.472 227.013 291.523 227.597 291.908C228.181 292.294 228.508 292.805 228.619 292.755C228.73 292.704 228.543 292.003 227.819 291.548C227.094 291.093 226.399 291.232 226.429 291.352Z" fill="#263238"/>
<path d="M223.859 292.445C223.859 292.565 224.355 292.767 224.764 293.279C225.173 293.791 225.301 294.341 225.418 294.335C225.535 294.329 225.611 293.633 225.085 293.008C224.56 292.382 223.865 292.331 223.859 292.445Z" fill="#263238"/>
<path d="M222.422 295.593C222.533 295.593 222.691 295.011 222.382 294.329C222.072 293.646 221.506 293.406 221.453 293.507C221.4 293.608 221.757 293.962 222.002 294.512C222.247 295.062 222.306 295.586 222.422 295.593Z" fill="#263238"/>
<path d="M226.621 288.394C226.674 288.508 227.205 288.337 227.9 288.394C228.595 288.451 229.109 288.647 229.168 288.546C229.226 288.445 228.724 288.009 227.924 287.971C227.124 287.933 226.592 288.299 226.621 288.394Z" fill="#263238"/>
<path d="M222.002 186.238C222.002 186.977 224.852 289.791 224.852 289.791H240.036L243.114 201.842C243.114 201.842 246.705 247.826 246.705 248.818C246.705 249.811 249.87 290.284 249.87 290.284L263.945 289.115L263.016 196.552L261.299 182.977L222.002 186.238Z" fill="#263238"/>
<path d="M244.696 198.587C244.504 198.705 244.297 198.794 244.083 198.852C243.68 199.004 243.09 199.213 242.366 199.484L242.232 199.529V199.383C242.15 198.151 242.051 196.495 241.963 194.681C241.864 192.716 241.794 190.94 241.759 189.625C241.759 188.993 241.729 188.456 241.729 188.096C241.712 187.907 241.724 187.717 241.764 187.533C241.813 187.714 241.841 187.901 241.846 188.089C241.887 188.45 241.928 188.974 241.969 189.612C242.062 190.876 242.167 192.678 242.261 194.668C242.354 196.482 242.419 198.138 242.454 199.377L242.308 199.276C243.043 199.055 243.639 198.878 244.06 198.764C244.266 198.683 244.479 198.623 244.696 198.587Z" fill="#455A64"/>
<path d="M243.528 187.9C243.528 187.9 243.575 187.818 243.733 187.761C243.954 187.697 244.19 187.72 244.398 187.824C244.555 187.886 244.69 188.002 244.781 188.153C244.873 188.305 244.917 188.484 244.906 188.665C244.887 188.893 244.798 189.108 244.655 189.277C244.512 189.446 244.321 189.559 244.112 189.6C243.9 189.634 243.683 189.605 243.485 189.514C243.287 189.424 243.116 189.277 242.991 189.088C242.903 188.942 242.856 188.772 242.856 188.598C242.856 188.424 242.903 188.254 242.991 188.108C243.112 187.912 243.288 187.764 243.493 187.685C243.645 187.628 243.733 187.641 243.738 187.653C243.744 187.666 243.394 187.773 243.184 188.203C243.122 188.318 243.092 188.449 243.099 188.582C243.105 188.714 243.146 188.842 243.219 188.949C243.313 189.084 243.439 189.189 243.584 189.254C243.729 189.318 243.887 189.34 244.042 189.316C244.187 189.285 244.32 189.209 244.424 189.097C244.528 188.984 244.598 188.84 244.626 188.684C244.637 188.554 244.612 188.424 244.552 188.31C244.492 188.197 244.402 188.107 244.293 188.052C244.059 187.915 243.792 187.861 243.528 187.9Z" fill="#455A64"/>
<path d="M250.501 188.968C250.419 188.968 250.303 188.526 250.244 187.969C250.186 187.413 250.203 186.952 250.285 186.946C250.367 186.939 250.484 187.382 250.542 187.938C250.6 188.494 250.583 188.968 250.501 188.968Z" fill="#455A64"/>
<path d="M251.552 188.848C251.47 188.848 251.4 188.374 251.4 187.786C251.4 187.198 251.459 186.724 251.546 186.724C251.634 186.724 251.698 187.198 251.698 187.786C251.698 188.374 251.64 188.848 251.552 188.848Z" fill="#455A64"/>
<path d="M233.255 189.556C233.174 189.556 233.045 189.031 232.969 188.367C232.893 187.704 232.899 187.148 232.969 187.141C233.039 187.135 233.18 187.666 233.255 188.336C233.331 189.006 233.337 189.549 233.255 189.556Z" fill="#455A64"/>
<path d="M234.535 189.657C234.265 189.303 234.131 188.85 234.161 188.393C234.098 187.951 234.192 187.499 234.424 187.129C234.511 187.129 234.424 187.71 234.465 188.393C234.505 189.075 234.616 189.631 234.535 189.657Z" fill="#455A64"/>
<path d="M229.734 188.285C229.74 188.437 229.723 188.589 229.682 188.734C229.608 189.144 229.507 189.548 229.378 189.941C228.945 191.268 228.309 192.507 227.497 193.607C226.654 194.741 225.653 195.726 224.531 196.527C224.185 196.773 223.826 196.997 223.456 197.197C223.321 197.279 223.178 197.344 223.03 197.392C223.03 197.355 223.579 197.026 224.414 196.375C225.488 195.55 226.451 194.567 227.275 193.455C228.071 192.371 228.718 191.168 229.197 189.884C229.553 188.905 229.687 188.273 229.734 188.285Z" fill="#455A64"/>
<path d="M262.555 195.212C262.405 195.26 262.25 195.286 262.094 195.288C261.67 195.324 261.244 195.324 260.82 195.288C259.434 195.144 258.1 194.641 256.931 193.822C255.824 193.037 254.93 191.946 254.344 190.662C254.173 190.288 254.04 189.896 253.947 189.492C253.899 189.351 253.878 189.201 253.882 189.05C253.929 189.05 254.058 189.682 254.519 190.586C255.135 191.808 256.02 192.848 257.094 193.613C258.227 194.404 259.507 194.914 260.844 195.105C261.889 195.231 262.549 195.161 262.555 195.212Z" fill="#455A64"/>
<path d="M237.823 247.276C237.823 247.346 235.288 246.752 232.204 245.962C229.121 245.172 226.633 244.464 226.656 244.394C226.68 244.325 229.191 244.912 232.275 245.709C235.358 246.505 237.84 247.207 237.823 247.276Z" fill="#455A64"/>
<path d="M262.28 243.535C262.315 243.598 260.125 244.83 257.392 246.297C254.659 247.763 252.405 248.894 252.37 248.825C252.335 248.755 254.525 247.523 257.258 246.063C259.991 244.603 262.245 243.472 262.28 243.535Z" fill="#455A64"/>
<path d="M214.632 151.421L216.705 154.233V149.398H223.246C223.246 149.398 223.97 160.465 223.83 162.822C223.675 164.051 223.407 165.26 223.03 166.431C222.834 167.112 222.48 167.728 222.001 168.218C221.522 168.708 220.934 169.057 220.294 169.229C219.654 169.402 218.984 169.394 218.348 169.205C217.712 169.015 217.132 168.652 216.664 168.15C215.932 167.379 215.249 166.556 214.62 165.685C211.7 161.64 206.888 151.781 206.888 151.781L211.934 148.52L214.632 151.421Z" fill="#FFBF9D"/>
<path d="M214.217 150.903C214.464 151.352 214.75 151.775 215.07 152.167C215.654 152.906 216.39 153.923 217.26 155.023C218.13 156.123 218.959 157.096 219.596 157.76C219.918 158.143 220.292 158.471 220.705 158.733C220.409 158.332 220.089 157.952 219.748 157.595C219.164 156.9 218.358 155.908 217.487 154.808C215.765 152.571 214.293 150.827 214.217 150.903Z" fill="#FF9A6C"/>
<path d="M229.547 117.425L236.444 114.493L249.146 113.716L255.115 116.174L246.933 121.091L239.878 120.813L229.547 117.425Z" fill="#FFBF9D"/>
<path d="M221.412 187.641C222.037 187.755 263.653 189.669 263.653 189.669L262.216 149.152L262.093 141.201L259.757 117.116C259.757 117.116 253.532 114.796 250.361 113.69C250.361 113.69 247.02 117.482 240.667 117.356C234.459 117.261 233.162 115.744 233.162 115.744L224.484 119.347C224.484 119.347 218.311 121.742 217.248 124.7C216.185 127.658 214.328 144.007 214.328 144.007H223.328L223.088 173.06L221.412 187.641Z" fill="#455A64"/>
<g opacity="0.2">
<path d="M247.581 133.592L248.872 143.805L255.115 146.82L259.728 142.566V133.086L247.581 133.592Z" fill="black"/>
</g>
<path d="M259.565 136.512C259.565 136.594 256.972 136.664 253.772 136.664C250.571 136.664 247.972 136.594 247.972 136.512C249.902 136.353 251.837 136.301 253.772 136.354C255.704 136.301 257.637 136.353 259.565 136.512Z" fill="#263238"/>
<path d="M218.609 128.928C218.639 129.017 218.662 129.107 218.679 129.2C218.72 129.402 218.772 129.655 218.843 129.977C219.067 130.952 219.344 131.913 219.672 132.853C220.086 134.06 220.67 135.482 221.389 137.074C222.107 138.667 222.679 140.569 223.316 142.592C223.316 145.019 223.316 147.648 223.269 150.448C223.211 156.641 223.152 162.247 223.117 166.336C223.082 168.346 223.059 169.983 223.036 171.152C223.036 171.695 223.024 172.132 223.001 172.46C223.003 172.612 222.993 172.765 222.971 172.915C222.961 172.762 222.961 172.607 222.971 172.454C222.971 172.134 222.971 171.698 222.971 171.146C222.971 169.983 222.971 168.34 222.971 166.33C222.971 162.241 223.018 156.635 223.047 150.448C223.047 147.673 223.094 145.019 223.112 142.592V142.636C222.487 140.614 221.885 138.737 221.231 137.125C220.607 135.737 220.049 134.316 219.561 132.865C219.245 131.916 218.99 130.945 218.796 129.958C218.737 129.611 218.691 129.326 218.667 129.162C218.641 129.086 218.622 129.008 218.609 128.928Z" fill="#263238"/>
<path d="M262.73 124.2C262.75 124.489 262.75 124.778 262.73 125.066C262.73 125.698 262.683 126.469 262.648 127.417C262.572 129.452 262.473 132.17 262.362 135.172C262.251 138.174 262.123 140.898 262.041 142.933C261.988 143.881 261.948 144.671 261.913 145.284C261.911 145.573 261.884 145.861 261.831 146.143C261.81 145.855 261.81 145.566 261.831 145.278C261.831 144.646 261.831 143.875 261.872 142.927C261.918 140.936 262 138.193 262.117 135.166C262.234 132.138 262.362 129.389 262.479 127.411C262.537 126.419 262.596 125.616 262.648 125.06C262.652 124.771 262.68 124.484 262.73 124.2Z" fill="#263238"/>
<g opacity="0.3">
<path d="M218.632 130.413C218.474 134.86 219.943 139.196 222.72 142.478C221.873 138.3 219.759 134.414 218.632 130.413Z" fill="black"/>
</g>
<g opacity="0.3">
<path d="M236.911 170.501C238.868 170.219 240.652 169.144 241.905 167.493C243.222 165.9 244.35 164.136 245.263 162.241C246.44 159.663 247.108 156.847 247.225 153.974C244.801 161.008 241.25 166.57 236.911 170.501Z" fill="black"/>
</g>
<path d="M247.996 150.909C247.992 150.996 247.98 151.083 247.961 151.168C247.92 151.37 247.867 151.61 247.809 151.901C247.75 152.192 247.657 152.603 247.529 153.045C247.4 153.487 247.277 153.993 247.091 154.543C246.681 155.837 246.202 157.103 245.654 158.335C244.314 161.351 242.594 164.153 240.544 166.658C239.707 167.681 238.81 168.643 237.857 169.54C237.466 169.938 237.075 170.254 236.742 170.545C236.409 170.836 236.117 171.07 235.866 171.253L235.282 171.676C235.148 171.765 235.078 171.815 235.072 171.803C235.123 171.736 235.182 171.677 235.247 171.626L235.79 171.158C236.03 170.969 236.316 170.722 236.637 170.419C236.958 170.115 237.338 169.787 237.723 169.389C238.646 168.472 239.521 167.501 240.345 166.481C241.344 165.222 242.274 163.901 243.131 162.525C243.969 161.138 244.733 159.701 245.42 158.221C245.973 157.005 246.466 155.758 246.898 154.486C247.096 153.949 247.236 153.443 247.371 153.007C247.505 152.571 247.616 152.192 247.698 151.882C247.78 151.572 247.838 151.364 247.896 151.168C247.955 150.972 247.984 150.903 247.996 150.909Z" fill="#263238"/>
<path d="M246.793 138.231C246.784 138.371 246.766 138.51 246.74 138.648C246.693 138.945 246.629 139.337 246.553 139.824C246.477 140.31 246.36 140.955 246.191 141.669C246.022 142.383 245.87 143.211 245.607 144.096C245.49 144.538 245.362 145.006 245.228 145.493C245.093 145.979 244.918 146.472 244.754 146.984C244.445 148.027 244.024 149.101 243.586 150.239C241.668 155.149 239.09 159.726 235.936 163.821C235.194 164.743 234.499 165.641 233.787 166.412C233.437 166.804 233.11 167.196 232.771 167.543C232.432 167.891 232.111 168.232 231.796 168.548C231.212 169.18 230.581 169.73 230.044 170.21C229.506 170.69 229.074 171.089 228.689 171.398L227.807 172.119C227.711 172.21 227.605 172.289 227.491 172.353C227.577 172.251 227.67 172.158 227.772 172.075L228.619 171.31C228.992 170.988 229.448 170.589 229.944 170.09C230.441 169.591 231.042 169.06 231.644 168.396L232.601 167.385C232.934 167.031 233.256 166.639 233.6 166.248C234.307 165.47 234.99 164.573 235.726 163.644C238.853 159.556 241.425 155.006 243.365 150.132C243.797 149 244.217 147.938 244.533 146.908C244.702 146.39 244.877 145.903 245.017 145.423C245.157 144.943 245.286 144.481 245.414 144.039C245.683 143.161 245.852 142.345 246.033 141.631C246.214 140.917 246.343 140.304 246.436 139.798C246.53 139.293 246.617 138.932 246.676 138.635C246.701 138.496 246.74 138.361 246.793 138.231Z" fill="#263238"/>
<path d="M213.908 125.635L229.933 152.002C230.009 152.127 230.051 152.272 230.053 152.422C230.055 152.572 230.017 152.719 229.943 152.845C229.87 152.972 229.764 153.073 229.639 153.137C229.514 153.2 229.375 153.223 229.238 153.203L210.783 150.675C210.686 150.66 210.593 150.625 210.508 150.57C210.424 150.516 210.351 150.444 210.293 150.359L192.668 124.308C192.58 124.187 192.527 124.042 192.516 123.889C192.504 123.737 192.534 123.584 192.601 123.449C192.669 123.315 192.772 123.205 192.897 123.133C193.022 123.061 193.163 123.03 193.304 123.044L212.29 124.561C212.618 124.593 212.934 124.707 213.215 124.893C213.496 125.079 213.733 125.333 213.908 125.635Z" fill="#E0E0E0"/>
<path d="M213.908 125.635C213.868 125.549 213.819 125.469 213.762 125.395C213.599 125.177 213.401 124.993 213.178 124.851C212.797 124.637 212.374 124.526 211.945 124.529L210.24 124.377L199.296 123.448L195.669 123.145L193.742 122.987C193.573 122.987 193.427 122.987 193.234 122.987C193.037 122.994 192.848 123.077 192.703 123.221C192.554 123.367 192.459 123.566 192.433 123.781C192.408 123.996 192.453 124.214 192.562 124.396L197.69 132.012C201.311 137.365 205.282 143.249 209.458 149.43C209.726 149.815 209.966 150.188 210.258 150.593C210.347 150.7 210.459 150.782 210.585 150.833C210.699 150.877 210.819 150.902 210.941 150.909L211.595 150.997L214.176 151.351L219.222 152.034L228.765 153.298C228.963 153.298 229.127 153.355 229.349 153.367C229.462 153.368 229.575 153.345 229.68 153.298C229.786 153.251 229.881 153.183 229.962 153.096C230.115 152.926 230.204 152.701 230.213 152.464C230.204 152.232 230.126 152.011 229.991 151.832L228.753 149.784L226.417 145.992L222.235 139.147C219.678 134.982 217.61 131.601 216.168 129.256L214.503 126.57C214.316 126.28 214.17 126.046 214.059 125.882C214.012 125.799 213.96 125.721 213.902 125.648C213.942 125.735 213.987 125.819 214.036 125.901L214.451 126.608C214.824 127.24 215.368 128.157 216.063 129.326L222.054 139.28L226.207 146.144L228.543 149.967L229.757 151.971C229.862 152.103 229.924 152.27 229.933 152.445C229.927 152.61 229.864 152.768 229.757 152.887C229.649 153.004 229.502 153.07 229.349 153.07C229.191 153.07 228.975 153.02 228.794 153.001L219.234 151.68L214.188 150.991L211.607 150.637L210.958 150.549C210.862 150.54 210.766 150.521 210.672 150.492C210.59 150.457 210.516 150.403 210.456 150.334C210.199 149.954 209.942 149.582 209.685 149.196C205.504 143.028 201.509 137.15 197.9 131.797C196.084 129.13 194.367 126.589 192.755 124.213C192.695 124.119 192.659 124.01 192.652 123.896C192.645 123.782 192.667 123.668 192.715 123.566C192.762 123.464 192.835 123.378 192.924 123.317C193.014 123.257 193.117 123.223 193.222 123.221C193.357 123.221 193.544 123.221 193.701 123.252L195.628 123.404L199.261 123.682L210.24 124.504L211.957 124.63C212.376 124.615 212.791 124.713 213.166 124.915C213.458 125.094 213.711 125.34 213.908 125.635Z" fill="#263238"/>
<path d="M192.667 124.327C192.794 124.362 192.923 124.383 193.053 124.39L194.174 124.517L198.344 124.915L212.523 126.179L212.413 126.109C213.3 127.538 214.217 129.016 215.134 130.533C218.877 136.758 222.142 142.484 224.612 146.555C225.839 148.596 226.861 150.226 227.573 151.351L228.402 152.615C228.492 152.77 228.596 152.914 228.712 153.045C228.635 152.884 228.549 152.728 228.455 152.577L227.672 151.257L224.793 146.409C222.376 142.307 219.134 136.569 215.391 130.337C214.474 128.802 213.551 127.323 212.658 125.913L212.617 125.85H212.576L198.391 124.713L194.215 124.409L193.088 124.34C192.948 124.324 192.808 124.32 192.667 124.327Z" fill="#263238"/>
<path d="M203.653 128.353C203.663 128.3 203.684 128.251 203.713 128.207C203.742 128.163 203.779 128.127 203.822 128.099C203.864 128.071 203.912 128.053 203.961 128.046C204.01 128.038 204.06 128.042 204.108 128.056C204.296 128.102 204.468 128.205 204.605 128.353C204.691 128.438 204.747 128.554 204.763 128.68C204.779 128.806 204.754 128.934 204.692 129.042C204.511 129.288 204.108 129.193 203.91 128.991C203.82 128.917 203.749 128.82 203.704 128.708C203.659 128.596 203.642 128.474 203.653 128.353Z" fill="white"/>
<path d="M212.273 143.129C212.273 143.129 212.997 141.233 211.151 141.005C208.92 140.88 206.684 140.88 204.453 141.005C204.453 141.005 201.796 141.309 202.356 143.369C202.356 143.369 200.791 144.886 201.632 146.529C202.473 148.172 202.8 147.679 202.8 147.679C202.8 147.679 202.578 149.683 203.968 149.98C203.968 149.98 205.486 151.92 206.888 151.8C208.29 151.68 214.217 148.589 214.609 148.008C215 147.427 215.56 147.06 215.228 146.384C215.228 146.384 215.952 144.608 214.387 144.336C214.398 144.305 214.287 142.832 212.273 143.129Z" fill="#FFBF9D"/>
<path d="M203.851 143.805C204.262 143.898 204.682 143.932 205.101 143.906C205.872 143.906 206.935 143.906 208.108 143.906C209.12 143.938 210.132 143.875 211.134 143.717C211.928 143.515 212.243 143.009 212.208 142.996C211.865 143.232 211.485 143.397 211.087 143.483C210.357 143.616 209.276 143.534 208.103 143.578C206.929 143.622 205.866 143.635 205.095 143.673C204.677 143.663 204.259 143.707 203.851 143.805Z" fill="#FF9A6C"/>
<path d="M205.171 146.839C205.294 146.917 205.432 146.966 205.574 146.984C205.958 147.069 206.351 147.096 206.742 147.066C207.312 147.019 207.876 146.907 208.424 146.731C209.043 146.548 209.703 146.289 210.398 146.061C211.044 145.83 211.712 145.679 212.389 145.613C212.975 145.671 213.563 145.544 214.083 145.246C214.286 145.098 214.429 144.872 214.486 144.614C214.523 144.421 214.498 144.221 214.416 144.045C214.27 143.761 214.071 143.742 214.077 143.755C214.083 143.767 214.217 143.843 214.305 144.102C214.361 144.278 214.357 144.469 214.294 144.642C214.23 144.815 214.112 144.957 213.96 145.044C213.461 145.281 212.913 145.371 212.372 145.303C211.67 145.35 210.977 145.495 210.31 145.733L208.348 146.434C207.817 146.613 207.275 146.744 206.724 146.826C206.207 146.864 205.688 146.868 205.171 146.839Z" fill="#FF9A6C"/>
<path d="M207.156 149.398C207.582 149.372 208.002 149.285 208.406 149.139C209.165 148.931 210.205 148.608 211.326 148.21C212.447 147.812 213.475 147.401 214.2 147.079C214.611 146.939 215.004 146.742 215.368 146.491C215.332 146.403 213.51 147.123 211.28 147.888C209.049 148.653 207.133 149.31 207.156 149.398Z" fill="#FF9A6C"/>
<path d="M206.683 151.775C207.032 151.808 207.384 151.765 207.717 151.648C208.532 151.434 209.324 151.132 210.082 150.745C210.97 150.309 211.747 149.86 212.307 149.537C212.628 149.391 212.927 149.195 213.195 148.956C212.076 149.347 210.992 149.844 209.954 150.441C208.208 151.351 206.672 151.68 206.683 151.775Z" fill="#FF9A6C"/>
<path d="M265.679 133.706C265.679 133.706 261.907 150.062 257.194 156.104C252.627 161.956 245.473 159.264 242.997 151.68C240.521 144.096 236.105 126.836 236.105 126.836L241.525 122.349L250.869 141.998L255.091 128.606L265.679 133.706Z" fill="#FFBF9D"/>
<path d="M236.357 127.304L232.38 121.066C231.801 120.93 231.234 120.74 230.686 120.497C230.236 120.213 229.792 117.735 229.804 117.255C229.816 116.774 229.033 115.643 229.349 115.321C229.664 114.999 230.727 114.98 230.668 114.518C230.668 114.417 229.88 113.381 230.499 112.622C230.84 112.378 231.221 112.204 231.62 112.11L231.556 109.728C231.556 109.728 232.724 106.922 233.956 107.939C233.956 107.939 238.529 111.731 238.99 112.363C239.452 112.995 241.216 120.889 241.525 122.374" fill="#FFBF9D"/>
<path d="M241.525 122.361C241.519 122.221 241.499 122.081 241.467 121.944C241.402 121.641 241.326 121.249 241.227 120.756C241.017 119.72 240.696 118.228 240.264 116.389C240.042 115.466 239.802 114.493 239.493 113.387C239.417 113.122 239.335 112.85 239.23 112.572C239.109 112.288 238.924 112.043 238.693 111.858C238.272 111.459 237.834 111.068 237.384 110.669C236.479 109.879 235.516 109.058 234.517 108.217C234.265 107.974 233.982 107.772 233.676 107.617C233.498 107.571 233.311 107.57 233.133 107.617C232.954 107.663 232.788 107.754 232.648 107.882C232.127 108.373 231.71 108.982 231.428 109.664V109.702C231.428 109.936 231.428 110.183 231.428 110.429C231.428 110.985 231.428 111.542 231.474 112.085L231.58 111.933C231.304 112.005 231.034 112.103 230.774 112.224C230.628 112.289 230.495 112.384 230.382 112.502C230.282 112.63 230.206 112.778 230.16 112.938C230.086 113.254 230.11 113.587 230.23 113.886C230.279 114.029 230.34 114.167 230.412 114.297L230.511 114.48V114.525C230.514 114.539 230.514 114.554 230.511 114.569C230.511 114.619 230.394 114.695 230.283 114.739C230.172 114.784 230.049 114.828 229.927 114.872C229.8 114.909 229.675 114.953 229.553 115.005C229.4 115.053 229.266 115.155 229.173 115.296C229.112 115.458 229.112 115.639 229.173 115.801C229.209 115.938 229.253 116.071 229.308 116.199C229.407 116.452 229.518 116.692 229.6 116.926C229.641 117.032 229.665 117.146 229.67 117.261C229.672 117.397 229.684 117.532 229.705 117.666C229.74 117.925 229.781 118.178 229.833 118.43C229.924 118.917 230.047 119.397 230.201 119.865C230.275 120.11 230.394 120.335 230.552 120.529C230.742 120.662 230.951 120.762 231.171 120.826C231.574 120.958 231.971 121.066 232.339 121.161L232.274 121.116L235.194 125.641L236.012 126.868C236.103 127.015 236.204 127.155 236.316 127.285C236.241 127.127 236.157 126.975 236.065 126.83L235.294 125.566C234.599 124.447 233.624 122.886 232.426 120.977V120.939H232.432C232.058 120.838 231.667 120.724 231.264 120.592C231.077 120.534 230.898 120.449 230.733 120.339C230.607 120.173 230.512 119.982 230.452 119.776C230.303 119.319 230.186 118.85 230.102 118.373C230.055 118.127 230.014 117.88 229.979 117.628C229.979 117.508 229.979 117.375 229.979 117.261C229.974 117.114 229.947 116.969 229.898 116.831C229.81 116.572 229.699 116.332 229.606 116.086C229.555 115.97 229.513 115.849 229.483 115.725C229.451 115.632 229.451 115.529 229.483 115.435C229.55 115.359 229.635 115.304 229.728 115.277C229.845 115.227 229.964 115.185 230.084 115.15C230.207 115.106 230.336 115.068 230.464 115.011C230.625 114.957 230.759 114.837 230.838 114.676C230.859 114.625 230.869 114.568 230.867 114.512C230.866 114.472 230.856 114.433 230.838 114.398V114.348L230.739 114.164C230.676 114.044 230.621 113.92 230.575 113.791C230.481 113.554 230.46 113.29 230.517 113.039C230.548 112.918 230.603 112.806 230.68 112.711C230.768 112.627 230.869 112.561 230.978 112.515C231.224 112.4 231.478 112.307 231.737 112.237L231.842 112.205V112.085C231.842 111.542 231.813 110.992 231.796 110.436C231.796 110.189 231.796 109.936 231.796 109.709V109.778C232.055 109.14 232.44 108.571 232.923 108.11C233.026 108.006 233.152 107.932 233.288 107.893C233.425 107.855 233.568 107.853 233.705 107.889C233.977 108.033 234.231 108.216 234.459 108.432C235.463 109.273 236.427 110.088 237.332 110.872C237.787 111.263 238.225 111.649 238.64 112.034C238.85 112.196 239.017 112.414 239.125 112.666C239.224 112.926 239.306 113.197 239.388 113.456C239.697 114.518 239.972 115.523 240.182 116.433C240.62 118.247 240.982 119.72 241.233 120.775C241.356 121.262 241.449 121.654 241.519 121.951C241.508 122.087 241.51 122.225 241.525 122.361Z" fill="#FF9A6C"/>
<path d="M231.62 112.11C231.62 112.161 232.082 112.11 232.788 112.199C233.211 112.27 233.629 112.373 234.038 112.509C234.575 112.591 235.119 112.591 235.656 112.509C236.116 112.439 236.585 112.483 237.028 112.638C237.47 112.794 237.873 113.056 238.208 113.406C238.467 113.717 238.674 114.074 238.821 114.462C238.824 114.236 238.784 114.013 238.703 113.805C238.623 113.598 238.504 113.41 238.354 113.254C238.05 112.893 237.675 112.61 237.256 112.426C236.742 112.211 236.186 112.135 235.638 112.205C235.124 112.275 234.605 112.275 234.091 112.205C233.669 112.078 233.237 111.996 232.8 111.959C232.401 111.924 232 111.976 231.62 112.11Z" fill="#FF9A6C"/>
<path d="M233.238 111.978C233.302 112.016 233.489 111.725 233.466 111.314C233.443 110.903 233.226 110.644 233.168 110.682C233.11 110.72 233.168 110.998 233.168 111.314C233.168 111.63 233.162 111.946 233.238 111.978Z" fill="#FF9A6C"/>
<path d="M230.528 114.607C231.684 114.726 232.85 114.628 233.974 114.316C234.382 114.171 234.812 114.111 235.241 114.139C235.573 114.218 235.867 114.428 236.065 114.727C236.237 115.024 236.389 115.335 236.52 115.656C236.54 115.273 236.439 114.894 236.234 114.582C236.024 114.214 235.688 113.95 235.3 113.848C234.836 113.79 234.366 113.839 233.921 113.994C232.07 114.449 230.528 114.518 230.528 114.607Z" fill="#FF9A6C"/>
<path d="M229.921 116.857C230.199 116.927 230.489 116.927 230.768 116.857C231.287 116.794 231.988 116.598 232.747 116.433C233.098 116.349 233.457 116.311 233.816 116.32C234.095 116.325 234.365 116.432 234.581 116.623C234.775 116.816 234.908 117.071 234.961 117.35C234.961 117.35 235.013 117.268 235.008 117.097C234.984 116.856 234.882 116.633 234.721 116.465C234.485 116.212 234.171 116.062 233.84 116.042C233.448 116.012 233.055 116.044 232.672 116.136C231.889 116.301 231.212 116.528 230.709 116.642C230.44 116.684 230.176 116.756 229.921 116.857Z" fill="#FF9A6C"/>
<path d="M231.264 118.639C231.217 118.677 231.609 119.119 232.321 119.119L232.181 118.987C232.181 119.119 232.181 119.252 232.222 119.385C232.241 119.926 232.352 120.46 232.549 120.958C232.626 120.425 232.611 119.88 232.502 119.353L232.45 118.955V118.816H232.327C231.968 118.8 231.611 118.74 231.264 118.639Z" fill="#FF9A6C"/>
<path d="M259.711 117.141C259.711 117.141 267.437 119.164 267.42 130.255C267.402 141.347 265.084 146.82 265.084 146.82L250.84 138.408L254.04 129.794L259.711 117.141Z" fill="#455A64"/>
<path d="M265.083 146.82C264.981 146.787 264.883 146.741 264.791 146.681L263.962 146.226L260.925 144.494L250.77 138.572L250.653 138.509L250.7 138.376L251.465 136.215C252.376 133.655 253.217 131.216 254.034 128.997C254.431 127.891 254.805 126.836 255.161 125.837C255.472 124.91 255.849 124.01 256.288 123.145C256.875 121.851 257.76 120.743 258.858 119.928C259.166 119.719 259.506 119.572 259.863 119.492C259.953 119.471 260.045 119.458 260.137 119.454H260.236C259.769 119.559 259.324 119.756 258.922 120.036C257.869 120.87 257.027 121.978 256.475 123.259C256.056 124.12 255.695 125.014 255.395 125.932C255.05 126.924 254.682 127.98 254.291 129.092L251.745 136.322L250.98 138.484L250.91 138.281L261.048 144.304L264.038 146.125L264.838 146.63C264.926 146.683 265.008 146.747 265.083 146.82Z" fill="#263238"/>
</svg>
