<svg width="24" height="16" viewBox="0 0 24 16" fill="none" xmlns="http://www.w3.org/2000/svg">
<path fill-rule="evenodd" clip-rule="evenodd" d="M1.70001 16.0001C1.48335 16.0001 1.30418 15.9293 1.16251 15.7876C1.02085 15.6459 0.950012 15.4668 0.950012 15.2501V13.6501C0.950012 13.0668 1.10001 12.5376 1.40001 12.0626C1.70001 11.5876 2.11668 11.2334 2.65001 11.0001C3.86668 10.4668 4.96251 10.0834 5.93751 9.8501C6.91251 9.61676 7.91668 9.5001 8.95001 9.5001C9.98335 9.5001 10.9833 9.61676 11.95 9.8501C12.9167 10.0834 14.0083 10.4668 15.225 11.0001C15.7583 11.2334 16.1792 11.5876 16.4875 12.0626C16.7958 12.5376 16.95 13.0668 16.95 13.6501V15.2501C16.95 15.4668 16.8792 15.6459 16.7375 15.7876C16.5958 15.9293 16.4167 16.0001 16.2 16.0001H1.70001ZM8.95001 7.9751C7.85001 7.9751 6.95001 7.6251 6.25001 6.9251C5.55001 6.2251 5.20001 5.3251 5.20001 4.2251C5.20001 3.1251 5.55001 2.2251 6.25001 1.5251C6.95001 0.825098 7.85001 0.475098 8.95001 0.475098C10.05 0.475098 10.95 0.825098 11.65 1.5251C12.35 2.2251 12.7 3.1251 12.7 4.2251C12.7 5.3251 12.35 6.2251 11.65 6.9251C10.95 7.6251 10.05 7.9751 8.95001 7.9751ZM15.45 14.5001V13.6501C15.45 13.3834 15.3708 13.1251 15.2125 12.8751C15.0542 12.6251 14.8583 12.4501 14.625 12.3501C13.425 11.8168 12.4167 11.4584 11.6 11.2751C10.7833 11.0918 9.90001 11.0001 8.95001 11.0001C8.00001 11.0001 7.11251 11.0918 6.28751 11.2751C5.46251 11.4584 4.45001 11.8168 3.25001 12.3501C3.01668 12.4501 2.82501 12.6251 2.67501 12.8751C2.52501 13.1251 2.45001 13.3834 2.45001 13.6501V14.5001H15.45ZM8.95001 6.4751C9.60001 6.4751 10.1375 6.2626 10.5625 5.8376C10.9875 5.4126 11.2 4.8751 11.2 4.2251C11.2 3.5751 10.9875 3.0376 10.5625 2.6126C10.1375 2.1876 9.60001 1.9751 8.95001 1.9751C8.30001 1.9751 7.76251 2.1876 7.33751 2.6126C6.91251 3.0376 6.70001 3.5751 6.70001 4.2251C6.70001 4.8751 6.91251 5.4126 7.33751 5.8376C7.76251 6.2626 8.30001 6.4751 8.95001 6.4751Z" fill="#224DFF"/>
<path d="M17.95 4.2251C17.95 5.3251 17.6 6.2251 16.9 6.9251C16.2 7.6251 15.3 7.9751 14.2 7.9751C14.0167 7.9751 13.8125 7.9626 13.5875 7.9376C13.3625 7.9126 13.1583 7.86676 12.975 7.8001C13.375 7.38343 13.6792 6.87093 13.8875 6.2626C14.0958 5.65426 14.2 4.9751 14.2 4.2251C14.2 3.4751 14.0958 2.8126 13.8875 2.2376C13.6792 1.6626 13.375 1.13343 12.975 0.650098C13.1583 0.600098 13.3625 0.558431 13.5875 0.525098C13.8125 0.491765 14.0167 0.475098 14.2 0.475098C15.3 0.475098 16.2 0.825098 16.9 1.5251C17.6 2.2251 17.95 3.1251 17.95 4.2251Z" fill="#3E414D"/>
<path d="M17.9 16.0001C18.0667 15.9668 18.2 15.8793 18.3 15.7376C18.4 15.5959 18.45 15.4168 18.45 15.2001V13.6501C18.45 12.6001 18.1833 11.7376 17.65 11.0626C17.1167 10.3876 16.4167 9.84177 15.55 9.4251C16.7 9.55843 17.7833 9.75426 18.8 10.0126C19.8167 10.2709 20.6417 10.5668 21.275 10.9001C21.825 11.2168 22.2583 11.6084 22.575 12.0751C22.8917 12.5418 23.05 13.0668 23.05 13.6501V15.2501C23.05 15.4668 22.9792 15.6459 22.8375 15.7876C22.6958 15.9293 22.5167 16.0001 22.3 16.0001H17.9Z" fill="#3E414D"/>
</svg>
