<svg width="24" height="24" viewBox="0 0 24 24" fill="none" xmlns="http://www.w3.org/2000/svg">
<path fill-rule="evenodd" clip-rule="evenodd" d="M1.70001 20.0001C1.48335 20.0001 1.30418 19.9293 1.16251 19.7876C1.02085 19.6459 0.950012 19.4668 0.950012 19.2501V17.6501C0.950012 17.0668 1.10001 16.5376 1.40001 16.0626C1.70001 15.5876 2.11668 15.2334 2.65001 15.0001C3.86668 14.4668 4.96251 14.0834 5.93751 13.8501C6.91251 13.6168 7.91668 13.5001 8.95001 13.5001C9.98335 13.5001 10.9833 13.6168 11.95 13.8501C12.9167 14.0834 14.0083 14.4668 15.225 15.0001C15.7583 15.2334 16.1792 15.5876 16.4875 16.0626C16.7958 16.5376 16.95 17.0668 16.95 17.6501V19.2501C16.95 19.4668 16.8792 19.6459 16.7375 19.7876C16.5958 19.9293 16.4167 20.0001 16.2 20.0001H1.70001ZM8.95001 11.9751C7.85001 11.9751 6.95001 11.6251 6.25001 10.9251C5.55001 10.2251 5.20001 9.3251 5.20001 8.2251C5.20001 7.1251 5.55001 6.2251 6.25001 5.5251C6.95001 4.8251 7.85001 4.4751 8.95001 4.4751C10.05 4.4751 10.95 4.8251 11.65 5.5251C12.35 6.2251 12.7 7.1251 12.7 8.2251C12.7 9.3251 12.35 10.2251 11.65 10.9251C10.95 11.6251 10.05 11.9751 8.95001 11.9751ZM15.45 18.5001V17.6501C15.45 17.3834 15.3708 17.1251 15.2125 16.8751C15.0542 16.6251 14.8583 16.4501 14.625 16.3501C13.425 15.8168 12.4167 15.4584 11.6 15.2751C10.7833 15.0918 9.90001 15.0001 8.95001 15.0001C8.00001 15.0001 7.11251 15.0918 6.28751 15.2751C5.46251 15.4584 4.45001 15.8168 3.25001 16.3501C3.01668 16.4501 2.82501 16.6251 2.67501 16.8751C2.52501 17.1251 2.45001 17.3834 2.45001 17.6501V18.5001H15.45ZM8.95001 10.4751C9.60001 10.4751 10.1375 10.2626 10.5625 9.8376C10.9875 9.4126 11.2 8.8751 11.2 8.2251C11.2 7.5751 10.9875 7.0376 10.5625 6.6126C10.1375 6.1876 9.60001 5.9751 8.95001 5.9751C8.30001 5.9751 7.76251 6.1876 7.33751 6.6126C6.91251 7.0376 6.70001 7.5751 6.70001 8.2251C6.70001 8.8751 6.91251 9.4126 7.33751 9.8376C7.76251 10.2626 8.30001 10.4751 8.95001 10.4751Z" fill="#224DFF"/>
<path d="M17.95 8.2251C17.95 9.3251 17.6 10.2251 16.9 10.9251C16.2 11.6251 15.3 11.9751 14.2 11.9751C14.0167 11.9751 13.8125 11.9626 13.5875 11.9376C13.3625 11.9126 13.1583 11.8668 12.975 11.8001C13.375 11.3834 13.6792 10.8709 13.8875 10.2626C14.0958 9.65426 14.2 8.9751 14.2 8.2251C14.2 7.4751 14.0958 6.8126 13.8875 6.2376C13.6792 5.6626 13.375 5.13343 12.975 4.6501C13.1583 4.6001 13.3625 4.55843 13.5875 4.5251C13.8125 4.49176 14.0167 4.4751 14.2 4.4751C15.3 4.4751 16.2 4.8251 16.9 5.5251C17.6 6.2251 17.95 7.1251 17.95 8.2251Z" fill="#3E414D"/>
<path d="M17.9 20.0001C18.0667 19.9668 18.2 19.8793 18.3 19.7376C18.4 19.5959 18.45 19.4168 18.45 19.2001V17.6501C18.45 16.6001 18.1833 15.7376 17.65 15.0626C17.1167 14.3876 16.4167 13.8418 15.55 13.4251C16.7 13.5584 17.7833 13.7543 18.8 14.0126C19.8167 14.2709 20.6417 14.5668 21.275 14.9001C21.825 15.2168 22.2583 15.6084 22.575 16.0751C22.8917 16.5418 23.05 17.0668 23.05 17.6501V19.2501C23.05 19.4668 22.9792 19.6459 22.8375 19.7876C22.6958 19.9293 22.5167 20.0001 22.3 20.0001H17.9Z" fill="#3E414D"/>
</svg>
