<svg width="44" height="44" viewBox="0 0 44 44" fill="none" xmlns="http://www.w3.org/2000/svg">
<rect x="0.5" y="0.5" width="43" height="43" rx="11.5" fill="white" stroke="#E5E7ED"/>
<path d="M14.5 32C14.1 32 13.75 31.85 13.45 31.55C13.15 31.25 13 30.9 13 30.5V15C13 14.6 13.15 14.25 13.45 13.95C13.75 13.65 14.1 13.5 14.5 13.5H16.125V12H17.75V13.5H26.25V12H27.875V13.5H29.5C29.9 13.5 30.25 13.65 30.55 13.95C30.85 14.25 31 14.6 31 15V30.5C31 30.9 30.85 31.25 30.55 31.55C30.25 31.85 29.9 32 29.5 32H14.5ZM14.5 30.5H29.5V19.75H14.5V30.5ZM14.5 18.25H29.5V15H14.5V18.25ZM14.5 18.25V15V18.25Z" fill="#95AAFF"/>
</svg>
