<svg width="18" height="18" viewBox="0 0 18 18" fill="none" xmlns="http://www.w3.org/2000/svg">
<path fill-rule="evenodd" clip-rule="evenodd" d="M0.45 17.55C0.75 17.85 1.1 18 1.5 18H16.5C16.9 18 17.25 17.85 17.55 17.55C17.85 17.25 18 16.9 18 16.5V1.5C18 1.1 17.85 0.75 17.55 0.45C17.25 0.15 16.9 0 16.5 0H1.5C1.1 0 0.75 0.15 0.45 0.45C0.15 0.75 0 1.1 0 1.5V16.5C0 16.9 0.15 17.25 0.45 17.55ZM16.5 16.5H1.5V1.5H16.5V16.5Z" fill="#E5E7ED"/>
<path fill-rule="evenodd" clip-rule="evenodd" d="M1.5 16.5H16.5V1.5H1.5V16.5ZM14.7 5.75L7.475 12.975L3.425 8.925L4.5 7.85L7.475 10.825L13.625 4.675L14.7 5.75Z" fill="#224DFF"/>
</svg>
